<svg width="28" height="24" viewBox="0 0 28 24" fill="none" xmlns="http://www.w3.org/2000/svg">
<path d="M6.93337 6.71104C6.84933 6.53987 6.67524 6.4314 6.48454 6.4314H5.0817C4.89101 6.4314 4.71692 6.53987 4.63287 6.71104L0.469144 15.1919C0.435475 15.2604 0.417969 15.3358 0.417969 15.4122V16.5538C0.417969 16.6825 0.46754 16.8061 0.556378 16.8992L0.654595 17.002C1.3045 17.681 2.09287 18.223 2.97021 18.594C3.84756 18.965 4.79492 19.157 5.75283 19.1579H5.7763C6.73816 19.1538 7.68866 18.957 8.56763 18.5801C9.4466 18.2032 10.2349 17.6544 10.8826 16.9683L11.0121 16.8309C11.0996 16.7381 11.1483 16.6155 11.1483 16.488V15.4122C11.1483 15.3358 11.1308 15.2604 11.0971 15.1919L6.93337 6.71104ZM9.35989 15.7985C9.35989 15.9325 9.30596 16.0617 9.20541 16.1502C8.26882 16.9754 7.04369 17.4346 5.77021 17.4325H5.75177C4.50479 17.4385 3.3018 17.002 2.36962 16.2103C2.26354 16.1202 2.20635 15.9863 2.20635 15.8471V15.8005C2.20635 15.7241 2.22386 15.6487 2.25753 15.5801L5.33429 9.31309C5.51735 8.94023 6.04889 8.94023 6.23195 9.31309L9.30958 15.5818C9.34268 15.6493 9.35989 15.7234 9.35989 15.7985Z" fill="#0B1F35" stroke="#0B1F35" stroke-width="0.5" stroke-linejoin="round"/>
<path d="M22.7849 6.71104C22.7009 6.53987 22.5268 6.4314 22.3361 6.4314H20.9333C20.7426 6.4314 20.5685 6.53987 20.4844 6.71104L16.3207 15.1919C16.287 15.2604 16.2695 15.3358 16.2695 15.4122V16.5538C16.2695 16.6825 16.3191 16.8061 16.4079 16.8992L16.5062 17.002C17.1561 17.681 17.9444 18.223 18.8218 18.594C19.6991 18.965 20.6465 19.157 21.6044 19.1579H21.6279C22.5897 19.1538 23.5402 18.957 24.4192 18.5801C25.2982 18.2032 26.0865 17.6544 26.7342 16.9683L26.8637 16.8309C26.9511 16.7381 26.9998 16.6155 26.9998 16.488V15.4122C26.9998 15.3358 26.9823 15.2604 26.9487 15.1919L22.7849 6.71104ZM25.2115 15.7985C25.2115 15.9325 25.1575 16.0617 25.057 16.1502C24.1204 16.9754 22.8953 17.4346 21.6218 17.4325H21.6033C20.3563 17.4385 19.1534 17.002 18.2212 16.2103C18.1151 16.1202 18.0579 15.9863 18.0579 15.8471V15.8005C18.0579 15.7241 18.0754 15.6487 18.1091 15.5801L21.1859 9.31309C21.3689 8.94023 21.9005 8.94023 22.0835 9.31309L25.1611 15.5818C25.1942 15.6493 25.2115 15.7234 25.2115 15.7985Z" fill="#0B1F35" stroke="#0B1F35" stroke-width="0.5" stroke-linejoin="round"/>
<path d="M14.4816 7.11208C14.4816 6.88957 14.6304 6.69754 14.8355 6.61109C15.1938 6.45998 15.5208 6.24519 15.799 5.97686C16.0765 5.7091 16.2987 5.39434 16.4553 5.04944C16.5458 4.85016 16.7353 4.70585 16.9542 4.70585H22.0294C22.3055 4.70585 22.5294 4.48199 22.5294 4.20585V3.48036C22.5294 3.20422 22.3055 2.98036 22.0294 2.98036H16.9551C16.7358 2.98036 16.546 2.83547 16.4557 2.63563C16.2389 2.15616 15.8958 1.73718 15.4576 1.42204C14.9173 1.03341 14.2614 0.823486 13.5874 0.823486C12.9135 0.823486 12.2576 1.03341 11.7172 1.42204C11.2791 1.73718 10.9359 2.15616 10.7192 2.63563C10.6289 2.83547 10.439 2.98036 10.2197 2.98036H5.14551C4.86937 2.98036 4.64551 3.20422 4.64551 3.48036V4.20585C4.64551 4.48199 4.86937 4.70585 5.14551 4.70585H10.2207C10.4395 4.70585 10.6291 4.85016 10.7195 5.04944C10.8761 5.39434 11.0984 5.7091 11.3759 5.97686C11.654 6.24519 11.981 6.45998 12.3394 6.61109C12.5444 6.69754 12.6932 6.88957 12.6932 7.11208V20.598C12.6932 20.8741 12.4694 21.098 12.1932 21.098H7.38099C7.10485 21.098 6.88099 21.3219 6.88099 21.598V22.3235C6.88099 22.5996 7.10485 22.8235 7.38099 22.8235H19.7939C20.07 22.8235 20.2939 22.5996 20.2939 22.3235V21.598C20.2939 21.3219 20.07 21.098 19.7939 21.098H14.9816C14.7055 21.098 14.4816 20.8741 14.4816 20.598V7.11208ZM12.2461 3.84311C12.2461 3.58715 12.3248 3.33695 12.4722 3.12413C12.6196 2.91132 12.8291 2.74545 13.0741 2.6475C13.3192 2.54955 13.5889 2.52392 13.8491 2.57386C14.1093 2.62379 14.3483 2.74704 14.5359 2.92803C14.7234 3.10901 14.8512 3.3396 14.9029 3.59064C14.9547 3.84167 14.9281 4.10187 14.8266 4.33834C14.7251 4.57481 14.5532 4.77693 14.3326 4.91913C14.112 5.06133 13.8527 5.13722 13.5874 5.13722C13.2317 5.13722 12.8905 5.00088 12.639 4.75819C12.3875 4.51549 12.2461 4.18633 12.2461 3.84311Z" fill="#0B1F35" stroke="#0B1F35" stroke-width="0.5" stroke-linejoin="round"/>
</svg>
