<svg width="100" height="196" viewBox="0 0 100 196" fill="none" xmlns="http://www.w3.org/2000/svg">
<path d="M7.70391 0L-29.319 21.3649L-35.4438 24.904L-36.0576 25.2696L-41.6992 28.5344L-82 51.7929L-45.6039 72.8053L-29.763 81.9467L9.68892 104.748L49.7416 81.6072L55.6313 78.2118L56.2451 77.8331L62.174 74.4377L99.3406 52.9552L7.70391 0Z" fill="#FFDDA8"/>
<path d="M9.67585 104.722V195.967L-29.6847 173.427L-45.63 164.311L-82 143.456V51.8059L9.67585 104.722Z" fill="#BC7C46"/>
<path d="M62.1478 74.4378L56.1275 77.9376L55.5137 78.2772L49.7154 81.6204L9.67578 104.735V195.967L49.7154 172.996L62.1478 165.852L99.3405 144.514V52.9553L62.1478 74.4378Z" fill="#DDA866"/>
<path d="M17.4985 176.587L16.8848 176.94V166.257L17.4985 165.905V176.587Z" fill="#4F2E16"/>
<path d="M19.6925 166.988L19.2485 167.733L17.1851 166.362L15.1348 170.11L14.6777 169.875L17.1851 165.317L19.6925 166.988Z" fill="#4F2E16"/>
<path d="M23.6362 173.035L23.0225 173.401V162.718L23.6362 162.365V173.035Z" fill="#4F2E16"/>
<path d="M25.8432 163.449L25.3731 164.181L23.3359 162.81L21.2725 166.558L20.8154 166.336L23.3359 161.778L25.8432 163.449Z" fill="#4F2E16"/>
<path d="M26.0001 172.042L14.5211 178.65C14.3643 178.755 14.2207 178.65 14.2207 178.468C14.2291 178.364 14.2603 178.263 14.3123 178.173C14.3642 178.082 14.4355 178.005 14.5211 177.945L26.0001 171.337C26.1568 171.233 26.2874 171.337 26.2874 171.507C26.2816 171.612 26.2528 171.714 26.2032 171.807C26.1536 171.899 26.0842 171.98 26.0001 172.042Z" fill="#4F2E16"/>
<path d="M25.8956 174.994L14.6255 181.523C13.4371 182.216 12.4707 181.654 12.4707 180.217V167.158C12.511 166.412 12.7273 165.686 13.1017 165.039C13.4762 164.392 13.9983 163.843 14.6255 163.436L25.8956 156.907C27.0709 156.228 28.0373 156.789 28.0373 158.213V171.272C27.9974 172.017 27.7827 172.742 27.4107 173.388C27.0386 174.035 26.5196 174.585 25.8956 174.994ZM14.6255 164.246C14.1862 164.534 13.8196 164.919 13.5545 165.372C13.2894 165.825 13.133 166.334 13.0976 166.858V179.917C13.0976 180.897 13.7897 181.223 14.6255 180.805L25.8956 174.275C26.3339 173.988 26.699 173.602 26.962 173.149C27.225 172.695 27.3785 172.187 27.4105 171.664V158.604C27.4105 157.625 26.7183 157.22 25.8825 157.716L14.6255 164.246Z" fill="#4F2E16"/>
<path d="M45.1968 164.298L33.6002 170.985C32.3857 171.703 31.4062 171.115 31.4062 169.679V156.345C31.4462 155.578 31.6655 154.831 32.0466 154.165C32.4276 153.498 32.9597 152.93 33.6002 152.506L45.1968 145.833C46.4113 145.127 47.3908 145.702 47.3908 147.138V160.511C47.3448 161.27 47.1226 162.007 46.7417 162.664C46.3609 163.322 45.8319 163.881 45.1968 164.298ZM33.6002 153.237C33.1401 153.537 32.758 153.942 32.4855 154.419C32.213 154.896 32.0579 155.431 32.0331 155.98V169.352C32.0331 170.358 32.7252 170.763 33.6002 170.266L45.1968 163.567C45.6552 163.268 46.0362 162.865 46.3086 162.391C46.581 161.916 46.737 161.384 46.7639 160.838V147.465C46.7639 146.459 46.0587 146.042 45.1968 146.551L33.6002 153.237Z" fill="#4F2E16"/>
<path d="M39.3991 164.011C39.2163 164.102 39.0596 164.011 39.0596 163.815V154.243C39.0695 154.131 39.1054 154.023 39.1643 153.928C39.2233 153.833 39.3037 153.753 39.3991 153.694C39.5689 153.59 39.6995 153.694 39.6995 153.877V163.462C39.6931 163.57 39.6628 163.676 39.6109 163.77C39.5589 163.865 39.4866 163.947 39.3991 164.011Z" fill="#4F2E16"/>
<path d="M40.8349 163.241L37.9749 164.899C37.8051 164.991 37.6484 164.899 37.6484 164.716C37.6537 164.605 37.6863 164.497 37.7432 164.401C37.8002 164.306 37.8797 164.225 37.9749 164.168L40.8349 162.509C41.0177 162.405 41.1483 162.509 41.1483 162.692C41.1433 162.802 41.1123 162.909 41.0578 163.004C41.0033 163.1 40.9269 163.181 40.8349 163.241Z" fill="#4F2E16"/>
<path d="M42.4411 151.043V155.523C42.4088 156.18 42.2202 156.821 41.8909 157.391C41.5616 157.961 41.101 158.444 40.5475 158.8L38.236 160.106C37.1913 160.72 36.3555 160.224 36.3555 159.022V154.543L37.4916 153.89V158.67C37.4916 158.879 37.6353 158.957 37.805 158.853C37.8978 158.795 37.9757 158.717 38.0324 158.624C38.0891 158.531 38.1231 158.426 38.1315 158.317V153.524L42.4411 151.043Z" fill="#4F2E16"/>
<path d="M7.70361 1.38428L-79.5713 51.806L9.67554 102.959L96.9896 52.9422L7.70361 1.38428Z" fill="#F9C98A"/>
<path d="M99.3536 53.8694V54.5876L9.67578 106.354V105.649L99.3536 53.8694Z" fill="#BC7C46"/>
<path d="M56.232 77.8461L55.6182 78.2117L-36.0576 25.2827L-35.4569 24.917L56.232 77.8461Z" fill="#BC7C46"/>
<path d="M56.1148 77.9375V79.4001H55.501V78.277L56.1148 77.9375Z" fill="#BC7C46"/>
<path d="M49.8722 52.1455H49.167V53.9346H49.8722V52.1455Z" fill="#373A3F"/>
<path d="M48.0179 51.349C50.4992 52.7724 50.4992 55.0839 48.0179 56.5727L-0.758331 84.6761C-2.1452 85.3846 -3.68032 85.754 -5.23765 85.754C-6.79498 85.754 -8.3301 85.3846 -9.71696 84.6761L-79.6361 44.31C-82.1174 42.8866 -82.1174 40.562 -79.6361 39.0863L-30.8599 10.9829C-29.473 10.2744 -27.9379 9.90503 -26.3806 9.90503C-24.8232 9.90503 -23.2881 10.2744 -21.9012 10.9829L48.0179 51.349Z" fill="#373A3F"/>
<path d="M48.0179 49.7818C50.4992 51.2183 50.4992 53.5429 48.0179 55.0055L-0.758331 83.1351C-2.14703 83.8374 -3.68144 84.2034 -5.23765 84.2034C-6.79386 84.2034 -8.32826 83.8374 -9.71696 83.1351L-79.6361 42.7559C-82.1174 41.3325 -82.1174 39.0079 -79.6361 37.5322L-30.8599 9.4157C-29.4712 8.71336 -27.9368 8.34741 -26.3806 8.34741C-24.8243 8.34741 -23.2899 8.71336 -21.9012 9.4157L48.0179 49.7818Z" fill="#14161A"/>
<path d="M43.016 51.7669L-5.61657 79.8443L-72.5713 41.1889V40.8494L-23.9517 13.1116L43.016 51.4404V51.7669Z" fill="#CAD2DA"/>
<path d="M43.016 51.4403L-5.61657 79.5046L-72.5713 40.8492L-23.9517 12.7849L43.016 51.4403Z" fill="white"/>
<path d="M3.44649 36.5789L-30.2986 56.0633L-31.043 55.6323L2.70211 36.1479L3.44649 36.5789Z" fill="#969696"/>
<path d="M10.9816 41.1365L-22.7634 60.6209L-23.5078 60.1899L10.2242 40.7056L10.9816 41.1365Z" fill="#969696"/>
<path d="M6.31934 54.1959L23.5967 56.2723L10.877 39.3867L15.4739 51.571L6.31934 54.1959Z" fill="#2FC26E"/>
<path d="M9.44087 18.3482L7.32527 17.4341L7.14244 17.6039L7.07715 17.9042L9.02297 19.2493L9.44087 18.3482Z" fill="#23201D"/>
<path d="M9.44115 18.3483L7.62592 17.5647L7.3125 18.0609L9.02326 19.2493L9.44115 18.3483Z" fill="#CAD2DA"/>
<path d="M15.9577 22.6709L14.1294 24.1597L8.54004 19.4845L8.70982 18.492L9.48031 17.8521L16.3364 20.3464L15.9577 22.6709Z" fill="#E51368"/>
<path d="M15.6175 23.1671L16.5969 21.1821C16.2704 20.9992 11.1773 19.0795 9.20537 18.074L8.77441 18.4396C10.0281 19.3146 14.5466 22.6708 15.6175 23.1671Z" fill="#FF5C5C"/>
<path d="M55.2658 42.8212L53.0588 46.6476L14.2337 24.2249C14.0699 24.1141 13.9395 23.9607 13.8566 23.7811C13.7737 23.6016 13.7416 23.4028 13.7636 23.2063C13.8012 22.5366 14.0326 21.8924 14.4296 21.3518C14.6694 21.0144 14.9762 20.7299 15.3307 20.5161C15.3736 20.5055 15.4184 20.5055 15.4613 20.5161C15.6047 20.4269 15.7678 20.3743 15.9363 20.3629C16.1048 20.3516 16.2735 20.3817 16.4277 20.4508L55.2658 42.8212Z" fill="#3A0B84"/>
<path d="M55.7227 43.8399C55.7227 42.8474 55.0175 42.4426 54.1687 42.9388C53.714 43.2321 53.3351 43.6287 53.0628 44.0962C52.7905 44.5637 52.6324 45.0889 52.6016 45.629C52.6016 46.6346 53.3068 47.0264 54.1687 46.5301C54.6195 46.2339 54.9947 45.8363 55.2646 45.3692C55.5344 44.9021 55.6913 44.3784 55.7227 43.8399Z" fill="#14161A"/>
<path d="M61.534 45.4592L61.1291 46.1775L59.6273 48.7893L58.674 50.4348L41.2791 40.8232C40.9564 40.4568 40.7516 40.0017 40.6914 39.5173C40.7058 39.0119 40.8213 38.5146 41.0309 38.0546C41.366 37.2232 41.9557 36.5191 42.7156 36.0435C42.8572 35.9646 43.0058 35.899 43.1596 35.8476C43.3128 35.7755 43.48 35.738 43.6493 35.738C43.8186 35.738 43.9859 35.7755 44.139 35.8476L61.534 45.4592Z" fill="#3A0B84"/>
<path d="M61.1294 46.1774L59.6276 48.7892L41.0312 38.0415C41.3663 37.21 41.9561 36.506 42.7159 36.0304C42.8575 35.9514 43.0061 35.8858 43.1599 35.8345L61.1294 46.1774Z" fill="#0C1F85"/>
<path d="M49.5328 40.118L48.4228 40.9799L14.4688 21.391C14.7086 21.0536 15.0153 20.7691 15.3698 20.5553C15.4127 20.5447 15.4575 20.5447 15.5004 20.5553L49.5328 40.118Z" fill="#0C1F85"/>
<path d="M62.1212 46.7782C62.1212 45.4723 61.2201 44.9761 60.1101 45.616C59.5268 45.9987 59.0403 46.5117 58.6891 47.1145C58.3378 47.7174 58.1313 48.3935 58.0859 49.0897C58.0859 50.3956 58.987 50.905 60.1101 50.2651C60.6956 49.8826 61.1827 49.3676 61.5321 48.7618C61.8815 48.1561 62.0833 47.4765 62.1212 46.7782Z" fill="#14161A"/>
<path d="M61.5079 47.1307C61.5079 46.2296 60.8811 45.8248 60.1106 46.321C59.7013 46.5868 59.3604 46.9451 59.1154 47.3671C58.8703 47.7891 58.7281 48.2629 58.7002 48.75C58.7002 49.6381 59.327 50.056 60.1106 49.5597C60.5174 49.2925 60.8558 48.9335 61.0985 48.5116C61.3413 48.0897 61.4815 47.6167 61.5079 47.1307Z" fill="#E51368"/>
<path d="M56.3759 48.9329C56.3759 49.2725 56.1409 49.4031 55.8405 49.2333L39.0985 39.5694C38.9464 39.4682 38.8199 39.3328 38.7293 39.1741C38.6386 39.0154 38.5862 38.8378 38.5762 38.6553C38.5762 38.3158 38.8112 38.1852 39.0985 38.3549L55.8405 48.0188C55.9965 48.117 56.1266 48.2514 56.2198 48.4105C56.313 48.5696 56.3665 48.7488 56.3759 48.9329Z" fill="#FF5C5C"/>
<path d="M55.7227 49.599L56.2581 49.2334L55.9839 48.4106L55.2656 48.9069L55.7227 49.599Z" fill="#FF5C5C"/>
<path d="M38.1445 38.7337L38.693 38.355C38.693 38.355 39.2284 38.6684 39.1632 38.7337L38.471 39.2952L38.1445 38.7337Z" fill="#B0B9C1"/>
<path d="M55.8398 49.2855C55.8398 49.625 55.6047 49.7687 55.3174 49.5989L38.5624 39.9351C38.4123 39.8316 38.2874 39.6958 38.197 39.5375C38.1066 39.3793 38.0529 39.2027 38.04 39.0209C38.04 38.6814 38.2751 38.5377 38.5624 38.7206L55.3174 48.3844C55.4686 48.4836 55.5945 48.6167 55.6852 48.7731C55.7759 48.9296 55.8288 49.105 55.8398 49.2855Z" fill="#E51368"/>
</svg>
