<svg width="182" height="196" viewBox="0 0 182 196" fill="none" xmlns="http://www.w3.org/2000/svg">
<path d="M89.7039 0.032959L52.681 21.3979L46.5562 24.9369L45.9424 25.3026L40.3008 28.5674L0 51.8259L36.3961 72.8382L52.237 81.9797L91.6889 104.781L131.742 81.6401L137.631 78.2447L138.245 77.866L144.174 74.4706L181.341 52.9882L89.7039 0.032959Z" fill="#FFDDA8"/>
<path d="M91.6758 104.755V196L52.3153 173.46L36.37 164.344L0 143.489V51.8389L91.6758 104.755Z" fill="#BC7C46"/>
<path d="M144.148 74.4707L138.128 77.9706L137.514 78.3101L131.715 81.6533L91.6758 104.768V196L131.715 173.029L144.148 165.885L181.341 144.547V52.9883L144.148 74.4707Z" fill="#DDA866"/>
<path d="M99.4985 176.62L98.8848 176.973V166.29L99.4985 165.938V176.62Z" fill="#4F2E16"/>
<path d="M101.692 167.021L101.248 167.766L99.1851 166.395L97.1348 170.143L96.6777 169.908L99.1851 165.35L101.692 167.021Z" fill="#4F2E16"/>
<path d="M105.636 173.068L105.022 173.433V162.751L105.636 162.398V173.068Z" fill="#4F2E16"/>
<path d="M107.843 163.482L107.373 164.214L105.336 162.842L103.273 166.59L102.815 166.368L105.336 161.811L107.843 163.482Z" fill="#4F2E16"/>
<path d="M108 172.075L96.5211 178.683C96.3643 178.788 96.2207 178.683 96.2207 178.5C96.2291 178.397 96.2603 178.296 96.3123 178.206C96.3642 178.115 96.4355 178.038 96.5211 177.978L108 171.37C108.157 171.266 108.287 171.37 108.287 171.54C108.282 171.645 108.253 171.747 108.203 171.84C108.154 171.932 108.084 172.013 108 172.075Z" fill="#4F2E16"/>
<path d="M107.896 175.027L96.6255 181.556C95.4371 182.248 94.4707 181.687 94.4707 180.25V167.191C94.511 166.445 94.7273 165.719 95.1017 165.072C95.4762 164.425 95.9983 163.876 96.6255 163.469L107.896 156.94C109.071 156.261 110.037 156.822 110.037 158.246V171.305C109.997 172.05 109.783 172.775 109.411 173.421C109.039 174.068 108.52 174.618 107.896 175.027ZM96.6255 164.279C96.1862 164.567 95.8196 164.952 95.5545 165.405C95.2894 165.858 95.133 166.367 95.0976 166.891V179.95C95.0976 180.929 95.7897 181.256 96.6255 180.838L107.896 174.308C108.334 174.021 108.699 173.635 108.962 173.182C109.225 172.728 109.379 172.22 109.41 171.697V158.637C109.41 157.658 108.718 157.253 107.883 157.749L96.6255 164.279Z" fill="#4F2E16"/>
<path d="M127.197 164.331L115.6 171.018C114.386 171.736 113.406 171.148 113.406 169.712V156.378C113.446 155.611 113.666 154.864 114.047 154.198C114.428 153.531 114.96 152.963 115.6 152.539L127.197 145.866C128.411 145.16 129.391 145.735 129.391 147.171V160.544C129.345 161.303 129.123 162.04 128.742 162.697C128.361 163.355 127.832 163.914 127.197 164.331ZM115.6 153.27C115.14 153.57 114.758 153.975 114.486 154.452C114.213 154.929 114.058 155.464 114.033 156.013V169.385C114.033 170.391 114.725 170.796 115.6 170.299L127.197 163.6C127.655 163.301 128.036 162.898 128.309 162.424C128.581 161.949 128.737 161.417 128.764 160.871V147.498C128.764 146.492 128.059 146.074 127.197 146.584L115.6 153.27Z" fill="#4F2E16"/>
<path d="M121.399 164.044C121.216 164.135 121.06 164.044 121.06 163.848V154.276C121.069 154.164 121.105 154.056 121.164 153.961C121.223 153.866 121.304 153.786 121.399 153.727C121.569 153.623 121.699 153.727 121.699 153.91V163.495C121.693 163.603 121.663 163.708 121.611 163.803C121.559 163.898 121.487 163.98 121.399 164.044Z" fill="#4F2E16"/>
<path d="M122.835 163.274L119.975 164.932C119.805 165.023 119.648 164.932 119.648 164.749C119.654 164.638 119.686 164.53 119.743 164.434C119.8 164.339 119.88 164.258 119.975 164.201L122.835 162.542C123.018 162.438 123.148 162.542 123.148 162.725C123.143 162.835 123.112 162.942 123.058 163.037C123.003 163.133 122.927 163.214 122.835 163.274Z" fill="#4F2E16"/>
<path d="M124.441 151.076V155.555C124.409 156.213 124.22 156.853 123.891 157.424C123.562 157.994 123.101 158.477 122.547 158.833L120.236 160.139C119.191 160.753 118.355 160.257 118.355 159.055V154.576L119.492 153.923V158.703C119.492 158.912 119.635 158.99 119.805 158.886C119.898 158.828 119.976 158.75 120.032 158.657C120.089 158.564 120.123 158.459 120.132 158.35V153.557L124.441 151.076Z" fill="#4F2E16"/>
<path d="M89.7036 1.41724L2.42871 51.839L91.6755 102.992L178.99 52.9751L89.7036 1.41724Z" fill="#F9C98A"/>
<path d="M181.354 53.9023V54.6206L91.6758 106.387V105.682L181.354 53.9023Z" fill="#BC7C46"/>
<path d="M138.232 77.879L137.618 78.2447L45.9424 25.3156L46.5431 24.95L138.232 77.879Z" fill="#BC7C46"/>
<path d="M138.115 77.9705V79.4331H137.501V78.31L138.115 77.9705Z" fill="#BC7C46"/>
<path d="M131.872 52.1785H131.167V53.9676H131.872V52.1785Z" fill="#373A3F"/>
<path d="M1.78957 40.1509H0.509766V41.7441H1.78957V40.1509Z" fill="#373A3F"/>
<path d="M130.018 51.3819C132.499 52.8054 132.499 55.1169 130.018 56.6056L81.2417 84.7091C79.8548 85.4175 78.3197 85.7869 76.7624 85.7869C75.205 85.7869 73.6699 85.4175 72.283 84.7091L2.36387 44.343C-0.117384 42.9195 -0.117384 40.595 2.36387 39.1193L51.1401 11.0158C52.527 10.3074 54.0621 9.93799 55.6194 9.93799C57.1768 9.93799 58.7119 10.3074 60.0988 11.0158L130.018 51.3819Z" fill="#373A3F"/>
<path d="M130.018 49.8148C132.499 51.2513 132.499 53.5758 130.018 55.0385L81.2417 83.1681C79.853 83.8704 78.3186 84.2364 76.7624 84.2364C75.2061 84.2364 73.6717 83.8704 72.283 83.1681L2.36387 42.7889C-0.117384 41.3654 -0.117384 39.0409 2.36387 37.5652L51.1401 9.44866C52.5288 8.74632 54.0632 8.38037 55.6194 8.38037C57.1757 8.38037 58.7101 8.74632 60.0988 9.44866L130.018 49.8148Z" fill="#14161A"/>
<path d="M46.0206 19.4781C46.3602 19.5973 46.6544 19.8189 46.8625 20.1125C47.0707 20.4061 47.1825 20.7572 47.1825 21.117C47.1825 21.4769 47.0707 21.8279 46.8625 22.1215C46.6544 22.4151 46.3602 22.6368 46.0206 22.756L25.4001 34.6529C24.5187 35.1034 23.543 35.3383 22.5532 35.3383C21.5633 35.3383 20.5876 35.1034 19.7062 34.6529C19.3652 34.5379 19.0682 34.3198 18.8566 34.0286C18.6449 33.7375 18.5288 33.3878 18.5245 33.0279C18.5202 32.668 18.6279 32.3156 18.8325 32.0195C19.0372 31.7234 19.3288 31.4982 19.6671 31.3751L40.2876 19.4781C41.169 19.0276 42.1447 18.7927 43.1345 18.7927C44.1243 18.7927 45.1001 19.0276 45.9814 19.4781H46.0206Z" fill="#403E3F"/>
<path d="M44.2837 20.9278C44.4189 20.9753 44.5361 21.0637 44.6189 21.1806C44.7018 21.2976 44.7463 21.4374 44.7463 21.5807C44.7463 21.7241 44.7018 21.8639 44.6189 21.9809C44.5361 22.0978 44.4189 22.1862 44.2837 22.2337C43.932 22.4137 43.5426 22.5075 43.1476 22.5075C42.7525 22.5075 42.3631 22.4137 42.0114 22.2337C41.8762 22.1862 41.7591 22.0978 41.6762 21.9809C41.5933 21.8639 41.5488 21.7241 41.5488 21.5807C41.5488 21.4374 41.5933 21.2976 41.6762 21.1806C41.7591 21.0637 41.8762 20.9753 42.0114 20.9278C42.3657 20.7566 42.7541 20.6677 43.1476 20.6677C43.541 20.6677 43.9294 20.7566 44.2837 20.9278Z" fill="#4C4C4C"/>
<path d="M44.0622 21.1105C44.5715 21.4109 44.5715 21.881 44.0622 22.1683C43.7778 22.316 43.462 22.3931 43.1415 22.3931C42.821 22.3931 42.5053 22.316 42.2208 22.1683C41.7115 21.881 41.7115 21.4109 42.2208 21.1105C42.5071 20.9689 42.8222 20.8953 43.1415 20.8953C43.4609 20.8953 43.7759 20.9689 44.0622 21.1105Z" fill="#5B5A5B"/>
<path d="M43.6311 21.3717C43.9054 21.5153 43.9054 21.7765 43.6311 21.9332C43.4793 22.0101 43.3115 22.0502 43.1414 22.0502C42.9712 22.0502 42.8035 22.0101 42.6517 21.9332C42.5947 21.9116 42.5457 21.8732 42.5111 21.823C42.4765 21.7729 42.458 21.7134 42.458 21.6525C42.458 21.5915 42.4765 21.5321 42.5111 21.4819C42.5457 21.4318 42.5947 21.3933 42.6517 21.3717C42.8014 21.2882 42.97 21.2444 43.1414 21.2444C43.3128 21.2444 43.4814 21.2882 43.6311 21.3717Z" fill="#14161A"/>
<path d="M24.4596 32.4328C24.5948 32.4804 24.7119 32.5687 24.7948 32.6857C24.8776 32.8027 24.9221 32.9425 24.9221 33.0858C24.9221 33.2291 24.8776 33.369 24.7948 33.4859C24.7119 33.6029 24.5948 33.6912 24.4596 33.7388C24.1035 33.912 23.7128 34.002 23.3169 34.002C22.921 34.002 22.5302 33.912 22.1742 33.7388C22.0444 33.6858 21.9334 33.5955 21.8553 33.4792C21.7771 33.3629 21.7354 33.2259 21.7354 33.0858C21.7354 32.9457 21.7771 32.8087 21.8553 32.6924C21.9334 32.5761 22.0444 32.4858 22.1742 32.4328C22.5282 32.2528 22.9197 32.1589 23.3169 32.1589C23.714 32.1589 24.1056 32.2528 24.4596 32.4328Z" fill="#4C4C4C"/>
<path d="M24.2377 32.5634C24.3468 32.6023 24.4412 32.6741 24.5079 32.7688C24.5747 32.8634 24.6105 32.9765 24.6105 33.0923C24.6105 33.2082 24.5747 33.3212 24.5079 33.4159C24.4412 33.5106 24.3468 33.5823 24.2377 33.6212C23.9532 33.7689 23.6375 33.846 23.317 33.846C22.9965 33.846 22.6807 33.7689 22.3963 33.6212C22.2872 33.5823 22.1928 33.5106 22.126 33.4159C22.0593 33.3212 22.0234 33.2082 22.0234 33.0923C22.0234 32.9765 22.0593 32.8634 22.126 32.7688C22.1928 32.6741 22.2872 32.6023 22.3963 32.5634C22.6826 32.4218 22.9976 32.3481 23.317 32.3481C23.6363 32.3481 23.9514 32.4218 24.2377 32.5634Z" fill="#5B5A5B"/>
<path d="M23.8069 32.8118C23.8638 32.8334 23.9129 32.8718 23.9475 32.922C23.982 32.9721 24.0006 33.0316 24.0006 33.0925C24.0006 33.1535 23.982 33.2129 23.9475 33.2631C23.9129 33.3132 23.8638 33.3517 23.8069 33.3733C23.6551 33.4502 23.4873 33.4902 23.3172 33.4902C23.147 33.4902 22.9793 33.4502 22.8275 33.3733C22.7705 33.3517 22.7215 33.3132 22.6869 33.2631C22.6523 33.2129 22.6338 33.1535 22.6338 33.0925C22.6338 33.0316 22.6523 32.9721 22.6869 32.922C22.7215 32.8718 22.7705 32.8334 22.8275 32.8118C22.9793 32.7349 23.147 32.6948 23.3172 32.6948C23.4873 32.6948 23.6551 32.7349 23.8069 32.8118Z" fill="#14161A"/>
<path d="M44.2969 17.702C44.7278 17.9371 44.7278 18.3288 44.2969 18.577L18.1784 33.6604C17.9424 33.7829 17.6804 33.8468 17.4144 33.8468C17.1485 33.8468 16.8865 33.7829 16.6505 33.6604C16.5613 33.6289 16.4842 33.5705 16.4296 33.4933C16.375 33.4162 16.3457 33.324 16.3457 33.2294C16.3457 33.1349 16.375 33.0427 16.4296 32.9655C16.4842 32.8883 16.5613 32.83 16.6505 32.7985L42.769 17.702C43.0027 17.5796 43.2626 17.5156 43.5264 17.5156C43.7902 17.5156 44.0501 17.5796 44.2838 17.702H44.2969Z" fill="#5B5A5B"/>
<path d="M44.6103 17.5845H44.2969V18.146H44.6103V17.5845Z" fill="#5B5A5B"/>
<path d="M16.6507 32.6941H16.3242V33.1642H16.6507V32.6941Z" fill="#5B5A5B"/>
<path d="M125.016 51.7999L76.3834 79.8772L9.42871 41.2219V40.8824L58.0483 13.1445L125.016 51.4734V51.7999Z" fill="#CAD2DA"/>
<path d="M125.016 51.4732L76.3834 79.5375L9.42871 40.8822L58.0483 12.8179L125.016 51.4732Z" fill="white"/>
<path d="M70.3892 27.4966L36.6442 46.981L35.8867 46.5501L69.6448 27.0657L70.3892 27.4966Z" fill="#969696"/>
<path d="M77.9113 32.0542L44.1793 51.5386L43.4219 51.1077L77.1669 31.6233L77.9113 32.0542Z" fill="#969696"/>
<path d="M85.4465 36.6119L51.7014 56.0962L50.957 55.6653L84.7021 36.1809L85.4465 36.6119Z" fill="#969696"/>
<path d="M92.9816 41.1695L59.2366 60.6539L58.4922 60.2229L92.2242 40.7385L92.9816 41.1695Z" fill="#969696"/>
<path d="M64.2902 23.644L31.172 42.7888L26.8232 40.2814L59.9545 21.1497L64.2902 23.644Z" fill="#E51368"/>
<path d="M17.0557 37.0558C16.8887 37.0597 16.7231 37.0239 16.5725 36.9514C16.2151 36.7652 15.909 36.4938 15.6812 36.1613C15.4534 35.8288 15.3111 35.4453 15.2666 35.0447C15.2666 33.8302 16.2722 32.6157 18.4922 31.3489L42.5212 17.4931C43.5688 16.8559 44.7689 16.513 45.995 16.5006C47.1833 16.4939 48.3484 16.8294 49.3512 17.467C49.4723 17.5437 49.5648 17.6582 49.6143 17.7927C49.6639 17.9273 49.6678 18.0744 49.6255 18.2113C49.0117 20.6795 20.6992 37.0558 17.0557 37.0558ZM17.0557 36.0241C19.8896 36.0241 46.1648 21.0191 48.4893 18.1591C47.7231 17.7456 46.8657 17.5301 45.995 17.5323C44.9515 17.5481 43.9316 17.8459 43.0436 18.3942L19.0538 32.25C16.677 33.556 16.3375 34.5615 16.3505 35.0055C16.3745 35.2204 16.4516 35.426 16.5746 35.6038C16.6977 35.7816 16.863 35.926 17.0557 36.0241Z" fill="#848484"/>
<path d="M44.2973 17.1797C44.7282 17.4279 44.7282 17.8196 44.2973 18.0547L18.1788 33.1512C17.9428 33.2737 17.6808 33.3376 17.4148 33.3376C17.1489 33.3376 16.8869 33.2737 16.6509 33.1512C16.557 33.1228 16.4747 33.0649 16.4162 32.9861C16.3577 32.9073 16.3262 32.8118 16.3262 32.7137C16.3262 32.6156 16.3577 32.5201 16.4162 32.4413C16.4747 32.3625 16.557 32.3046 16.6509 32.2762L42.7693 17.1797C43.004 17.0605 43.2635 16.9983 43.5268 16.9983C43.79 16.9983 44.0496 17.0605 44.2842 17.1797H44.2973Z" fill="#A1A5A8"/>
<path d="M88.3193 54.2289L105.597 56.3053L92.877 39.4197L97.4739 51.604L88.3193 54.2289Z" fill="#2FC26E"/>
<path d="M91.4409 18.3812L89.3253 17.467L89.1424 17.6368L89.0771 17.9372L91.023 19.2823L91.4409 18.3812Z" fill="#23201D"/>
<path d="M91.4412 18.3812L89.6259 17.5977L89.3125 18.0939L91.0233 19.2823L91.4412 18.3812Z" fill="#CAD2DA"/>
<path d="M97.9577 22.7039L96.1294 24.1926L90.54 19.5174L90.7098 18.5249L91.4803 17.885L98.3364 20.3793L97.9577 22.7039Z" fill="#E51368"/>
<path d="M97.6175 23.2L98.5969 21.215C98.2704 21.0322 93.1773 19.1125 91.2054 18.1069L90.7744 18.4726C92.0281 19.3476 96.5466 22.7038 97.6175 23.2Z" fill="#FF5C5C"/>
<path d="M137.266 42.8542L135.059 46.6805L96.2337 24.2578C96.0699 24.1471 95.9395 23.9936 95.8566 23.8141C95.7737 23.6345 95.7416 23.4357 95.7636 23.2392C95.8012 22.5696 96.0326 21.9253 96.4296 21.3848C96.6694 21.0473 96.9762 20.7628 97.3307 20.549C97.3736 20.5385 97.4184 20.5385 97.4613 20.549C97.6047 20.4599 97.7678 20.4073 97.9363 20.3959C98.1048 20.3845 98.2735 20.4147 98.4277 20.4837L137.266 42.8542Z" fill="#3A0B84"/>
<path d="M137.723 43.8729C137.723 42.8804 137.018 42.4756 136.169 42.9718C135.714 43.2651 135.335 43.6616 135.063 44.1291C134.79 44.5966 134.632 45.1219 134.602 45.662C134.602 46.6676 135.307 47.0593 136.169 46.5631C136.619 46.2668 136.995 45.8693 137.265 45.4022C137.534 44.9351 137.691 44.4114 137.723 43.8729Z" fill="#14161A"/>
<path d="M143.534 45.4922L143.129 46.2104L141.627 48.8223L140.674 50.4677L123.279 40.8561C122.956 40.4898 122.752 40.0347 122.691 39.5502C122.706 39.0449 122.821 38.5476 123.031 38.0876C123.366 37.2561 123.956 36.5521 124.716 36.0765C124.857 35.9975 125.006 35.9319 125.16 35.8806C125.313 35.8084 125.48 35.771 125.649 35.771C125.819 35.771 125.986 35.8084 126.139 35.8806L143.534 45.4922Z" fill="#3A0B84"/>
<path d="M143.129 46.2103L141.628 48.8222L123.031 38.0744C123.366 37.243 123.956 36.539 124.716 36.0633C124.857 35.9844 125.006 35.9188 125.16 35.8674L143.129 46.2103Z" fill="#0C1F85"/>
<path d="M131.533 40.1509L130.423 41.0129L96.4688 21.424C96.7086 21.0865 97.0153 20.802 97.3698 20.5882C97.4127 20.5777 97.4575 20.5777 97.5004 20.5882L131.533 40.1509Z" fill="#0C1F85"/>
<path d="M144.121 46.8112C144.121 45.5053 143.22 45.009 142.11 45.6489C141.527 46.0317 141.04 46.5447 140.689 47.1475C140.338 47.7503 140.131 48.4265 140.086 49.1227C140.086 50.4286 140.987 50.9379 142.11 50.298C142.696 49.9156 143.183 49.4006 143.532 48.7948C143.882 48.189 144.083 47.5095 144.121 46.8112Z" fill="#14161A"/>
<path d="M143.508 47.1636C143.508 46.2626 142.881 45.8577 142.111 46.354C141.701 46.6197 141.36 46.9781 141.115 47.4001C140.87 47.8221 140.728 48.2958 140.7 48.783C140.7 49.671 141.327 50.0889 142.111 49.5927C142.517 49.3255 142.856 48.9665 143.099 48.5446C143.341 48.1227 143.481 47.6497 143.508 47.1636Z" fill="#E51368"/>
<path d="M138.376 48.9659C138.376 49.3054 138.141 49.436 137.84 49.2662L121.099 39.6024C120.946 39.5011 120.82 39.3658 120.729 39.2071C120.639 39.0484 120.586 38.8708 120.576 38.6883C120.576 38.3487 120.811 38.2181 121.099 38.3879L137.84 48.0517C137.997 48.15 138.127 48.2843 138.22 48.4434C138.313 48.6025 138.367 48.7817 138.376 48.9659Z" fill="#FF5C5C"/>
<path d="M137.723 49.632L138.258 49.2663L137.984 48.4436L137.266 48.9399L137.723 49.632Z" fill="#FF5C5C"/>
<path d="M120.145 38.7667L120.693 38.3879C120.693 38.3879 121.228 38.7014 121.163 38.7667L120.471 39.3282L120.145 38.7667Z" fill="#B0B9C1"/>
<path d="M137.84 49.3184C137.84 49.658 137.605 49.8016 137.317 49.6319L120.562 39.968C120.412 39.8646 120.287 39.7287 120.197 39.5705C120.107 39.4122 120.053 39.2357 120.04 39.0539C120.04 38.7143 120.275 38.5707 120.562 38.7535L137.317 48.4173C137.469 48.5166 137.594 48.6497 137.685 48.8061C137.776 48.9625 137.829 49.138 137.84 49.3184Z" fill="#E51368"/>
</svg>
