<svg width="25" height="19" viewBox="0 0 25 19" fill="none" xmlns="http://www.w3.org/2000/svg">
<path fill-rule="evenodd" clip-rule="evenodd" d="M4.33753 1.20005H23.5236L21.6964 12.0001H6.16478L4.33753 1.20005Z" stroke="#0B1F35" stroke-width="2" stroke-linecap="round" stroke-linejoin="round"/>
<path fill-rule="evenodd" clip-rule="evenodd" d="M8.388 17.9999C9.06801 17.9999 9.61926 17.4626 9.61926 16.7999C9.61926 16.1371 9.06801 15.5999 8.388 15.5999C7.70799 15.5999 7.15674 16.1371 7.15674 16.7999C7.15674 17.4626 7.70799 17.9999 8.388 17.9999Z" stroke="#0B1F35" stroke-width="2" stroke-linejoin="round"/>
<path fill-rule="evenodd" clip-rule="evenodd" d="M19.4698 17.9999C20.1499 17.9999 20.7012 17.4626 20.7012 16.7999C20.7012 16.1371 20.1499 15.5999 19.4698 15.5999C18.7898 15.5999 18.2385 16.1371 18.2385 16.7999C18.2385 17.4626 18.7898 17.9999 19.4698 17.9999Z" stroke="#0B1F35" stroke-width="2" stroke-linejoin="round"/>
<path d="M5.92527 1.2H1" stroke="#0B1F35" stroke-width="2" stroke-linecap="round" stroke-linejoin="round"/>
</svg>
