<svg width="25" height="19" viewBox="0 0 25 19" fill="none" xmlns="http://www.w3.org/2000/svg">
<path fill-rule="evenodd" clip-rule="evenodd" d="M4.33753 1.20029H23.5236L21.6964 12.0003H6.16478L4.33753 1.20029Z" stroke="#0B1F35" stroke-width="2" stroke-linecap="round" stroke-linejoin="round"/>
<path fill-rule="evenodd" clip-rule="evenodd" d="M8.388 17.9996C9.06801 17.9996 9.61926 17.4624 9.61926 16.7996C9.61926 16.1369 9.06801 15.5996 8.388 15.5996C7.70799 15.5996 7.15674 16.1369 7.15674 16.7996C7.15674 17.4624 7.70799 17.9996 8.388 17.9996Z" stroke="#0B1F35" stroke-width="2" stroke-linejoin="round"/>
<path fill-rule="evenodd" clip-rule="evenodd" d="M19.4698 17.9996C20.1499 17.9996 20.7012 17.4624 20.7012 16.7996C20.7012 16.1369 20.1499 15.5996 19.4698 15.5996C18.7898 15.5996 18.2385 16.1369 18.2385 16.7996C18.2385 17.4624 18.7898 17.9996 19.4698 17.9996Z" stroke="#0B1F35" stroke-width="2" stroke-linejoin="round"/>
<path d="M5.92527 1.2H1" stroke="#0B1F35" stroke-width="2" stroke-linecap="round" stroke-linejoin="round"/>
</svg>
