<svg width="28" height="22" viewBox="0 0 28 22" fill="none" xmlns="http://www.w3.org/2000/svg">
<path d="M27 2.33333L25.1393 13.4977C25.059 13.9799 24.6418 14.3333 24.1529 14.3333H7.49994C7.0111 14.3333 6.5939 13.9799 6.51354 13.4977L4.79212 3.16894C4.71176 2.68675 4.29457 2.33333 3.80573 2.33333H1" stroke="#0B1F35" stroke-width="2" stroke-linecap="round" stroke-linejoin="round"/>
<path fill-rule="evenodd" clip-rule="evenodd" d="M9.08625 21C9.83056 21 10.4339 20.403 10.4339 19.6666C10.4339 18.9303 9.83056 18.3333 9.08625 18.3333C8.34194 18.3333 7.73856 18.9303 7.73856 19.6666C7.73856 20.403 8.34194 21 9.08625 21Z" stroke="#0B1F35" stroke-width="2"/>
<path fill-rule="evenodd" clip-rule="evenodd" d="M22.5631 21C23.3074 21 23.9108 20.403 23.9108 19.6666C23.9108 18.9303 23.3074 18.3333 22.5631 18.3333C21.8188 18.3333 21.2154 18.9303 21.2154 19.6666C21.2154 20.403 21.8188 21 22.5631 21Z" stroke="#0B1F35" stroke-width="2"/>
<path d="M19.8677 5H11.7816" stroke="#0B1F35" stroke-width="2" stroke-linecap="round"/>
<path d="M15.8246 1V9" stroke="#0B1F35" stroke-width="2" stroke-linecap="round"/>
</svg>
