<svg width="32" height="26" viewBox="0 0 32 26" fill="none" xmlns="http://www.w3.org/2000/svg">
<path fill-rule="evenodd" clip-rule="evenodd" d="M4.33756 8.20005H23.5236L21.6964 19.0001H6.16481L4.33756 8.20005Z" stroke="#0B1F35" stroke-width="2" stroke-linecap="round" stroke-linejoin="round"/>
<path fill-rule="evenodd" clip-rule="evenodd" d="M8.38799 24.9999C9.06803 24.9999 9.61931 24.4626 9.61931 23.7999C9.61931 23.1371 9.06803 22.5999 8.38799 22.5999C7.70796 22.5999 7.15668 23.1371 7.15668 23.7999C7.15668 24.4626 7.70796 24.9999 8.38799 24.9999Z" stroke="#0B1F35" stroke-width="2" stroke-linejoin="round"/>
<path fill-rule="evenodd" clip-rule="evenodd" d="M19.4698 24.9999C20.1499 24.9999 20.7012 24.4626 20.7012 23.7999C20.7012 23.1371 20.1499 22.5999 19.4698 22.5999C18.7898 22.5999 18.2385 23.1371 18.2385 23.7999C18.2385 24.4626 18.7898 24.9999 19.4698 24.9999Z" stroke="#0B1F35" stroke-width="2" stroke-linejoin="round"/>
<path d="M5.92527 8.2H1" stroke="#0B1F35" stroke-width="2" stroke-linecap="round" stroke-linejoin="round"/>
<circle cx="24" cy="8" r="8" fill="#E51368"/>
<path d="M22.1289 11H21V6.64844L19.6523 7.06641V6.14844L22.0078 5.30469H22.1289V11ZM27.9206 8.64844C27.9206 9.4349 27.7578 10.0365 27.4323 10.4531C27.1068 10.8698 26.6302 11.0781 26.0026 11.0781C25.3828 11.0781 24.9089 10.8737 24.5807 10.4648C24.2526 10.056 24.0847 9.47005 24.0768 8.70703V7.66016C24.0768 6.86589 24.2409 6.26302 24.569 5.85156C24.8998 5.4401 25.375 5.23438 25.9948 5.23438C26.6146 5.23438 27.0886 5.4388 27.4167 5.84766C27.7448 6.25391 27.9128 6.83854 27.9206 7.60156V8.64844ZM26.7917 7.5C26.7917 7.02865 26.7266 6.6862 26.5964 6.47266C26.4688 6.25651 26.2682 6.14844 25.9948 6.14844C25.7292 6.14844 25.5326 6.2513 25.405 6.45703C25.28 6.66016 25.2136 6.97917 25.2057 7.41406V8.79688C25.2057 9.26042 25.2682 9.60547 25.3932 9.83203C25.5209 10.056 25.724 10.168 26.0026 10.168C26.2787 10.168 26.4779 10.0599 26.6003 9.84375C26.7227 9.6276 26.7865 9.29688 26.7917 8.85156V7.5Z" fill="#FBFBFB"/>
</svg>
