<svg width="180" height="27" viewBox="0 0 180 27" fill="none" xmlns="http://www.w3.org/2000/svg">
<g clip-path="url(#clip0)">
<path d="M169.283 0.00695801L165.784 10.1599H147.091L150.59 0.00695801H140.63L131.564 26.3266H141.498L144.997 16.1737H163.69L160.191 26.3266H170.151L179.217 0.00695801H169.283Z" fill="#1E75BB"/>
<path d="M129.803 12.1564C129.368 11.5233 128.756 11.012 128.066 10.6712C127.3 10.3303 126.457 10.1599 125.614 10.1599H103.78L105.006 6.50775H133.659L135.931 0.00695801H104.163C103.193 0.00695801 102.248 0.177391 101.354 0.518256C100.333 0.859121 99.4135 1.37042 98.5963 2.0278C97.8812 2.68519 97.013 3.36692 96.4767 4.19473C95.8383 4.9982 95.302 5.89906 94.9189 6.84861L94.0507 9.33206C93.8208 10.2086 93.7187 11.1094 93.6932 12.0103C93.8464 12.8381 94.0507 13.6659 94.4082 14.1772C94.8423 14.8103 95.4552 15.3216 96.1447 15.6868C96.8853 16.0763 97.728 16.2955 98.5963 16.3441H120.43L119.205 19.8502H90.5266L88.2793 26.351H120.047C121.018 26.351 121.963 26.1805 122.856 25.8397C123.878 25.4988 124.797 24.9875 125.614 24.3545C126.33 23.6971 127.198 23.0154 127.734 22.1876C128.398 21.3841 128.909 20.4832 129.292 19.5337L130.16 17.0502C130.441 16.1737 130.569 15.2729 130.518 14.372C130.339 13.4955 130.16 12.692 129.803 12.1564Z" fill="#1E75BB"/>
<path d="M90.7055 4.02433C90.5523 3.19651 90.348 2.53913 89.8628 2.00348C89.5053 1.37045 88.9435 0.834801 88.2795 0.518283C87.5134 0.177418 86.6707 -0.017362 85.8279 0.00698551H60.8783C59.9079 0.00698551 58.963 0.177418 58.0692 0.518283C57.0478 0.859149 56.1029 1.37045 55.2857 2.02783C54.5707 2.68521 53.7279 3.36694 53.1661 4.19476C52.5022 4.99823 51.9914 5.89909 51.6084 6.84864L44.9688 26.3267H54.9282L61.7466 6.53212H80.5929L78.5244 12.3512H65.2451L63.1511 18.5111H76.4048L73.7745 26.351H83.5807L90.3735 6.67821C90.6544 5.8017 90.7566 4.92518 90.7055 4.02433Z" fill="#1E75BB"/>
<path d="M47.2417 4.1947C47.1906 3.43993 46.9608 2.68515 46.5522 2.02777C46.1947 1.34604 45.5563 0.810395 44.8157 0.542572C44.0496 0.177359 43.2069 0.00692676 42.3641 0.0312743H10.5961L8.32327 6.53206H37.1035L32.5579 19.8258H3.77768L1.50488 26.3266H33.4262C34.3771 26.3027 35.3175 26.13 36.2097 25.8153C37.1035 25.3283 38.125 24.8414 38.9932 24.1597C39.836 23.5266 40.6021 22.7962 41.266 21.9927C41.8279 21.1893 42.2875 20.3615 42.6706 19.4849L46.8842 6.84858C47.2672 6.02076 47.3949 5.09556 47.2417 4.1947Z" fill="#1E75BB"/>
<path d="M19.6618 10.1599H2.7308L0.458008 16.1737H17.5678L19.6618 10.1599Z" fill="#1E75BB"/>
</g>
<defs>
<clipPath id="clip0">
<rect width="178.958" height="26.344" fill="white" transform="translate(0.358398 0.00689697)"/>
</clipPath>
</defs>
</svg>
