<svg width="99" height="140" viewBox="0 0 99 140" fill="none" xmlns="http://www.w3.org/2000/svg">
<path d="M78.9649 50.0819C79.0624 49.4239 79.0991 48.9985 79.0991 48.5011C79.2681 45.3321 78.5731 42.2549 77.3228 39.3194C76.3583 37.0085 74.6475 35.0582 72.4437 33.7573L57.5951 25.4141C61.8175 27.6751 64.3509 32.9207 64.1867 40.2238C64.1867 40.7213 64.1867 41.2187 64.1867 41.7387C64.1971 41.8893 64.1971 42.0404 64.1867 42.1909C64.1867 42.5527 64.1867 42.9145 64.0694 43.2988C64.081 43.4569 64.081 43.6156 64.0694 43.7737C64.0694 44.1128 64.0694 44.4294 63.9052 44.7685V45.2207L63.6237 46.6452C63.6237 47.0748 63.4126 47.5044 63.3188 47.9114C63.2249 48.3183 63.3188 48.1827 63.2015 48.2957C63.0842 48.4088 63.0607 48.9062 62.9669 49.2001C62.8731 49.4941 62.9669 49.4262 62.9669 49.5167L62.6854 50.4211L62.5447 50.8733C62.5447 51.0768 62.3805 51.3029 62.3101 51.529C62.099 52.1395 61.8878 52.7274 61.6298 53.3378C61.5975 53.4456 61.5583 53.5513 61.5125 53.6544L60.8792 55.1467C60.8145 55.2706 60.7596 55.3991 60.715 55.531C60.4569 56.0963 60.1989 56.639 59.9174 57.2042C59.9174 57.3173 59.8001 57.4077 59.7532 57.5208C59.5187 57.9956 59.2606 58.4478 59.0026 58.9226L58.7915 59.307C58.4865 59.8496 58.1816 60.3923 57.8532 60.9349L57.689 61.2062L56.7741 62.6533L56.5396 62.9925C56.1877 63.5577 55.7889 64.1004 55.4136 64.643L55.179 64.9596C54.7333 65.57 54.2876 66.1579 53.8185 66.7458L53.3728 67.2658L52.9271 67.8085C52.7629 67.9893 52.6222 68.1702 52.458 68.3285C52.3145 68.5194 52.1577 68.7007 51.9888 68.8712C51.9234 68.9645 51.8444 69.0482 51.7542 69.1199C51.4727 69.4364 51.1913 69.7529 50.8863 70.0469C50.7735 70.1857 50.6479 70.3143 50.511 70.4313L49.7369 71.2C49.5924 71.3618 49.4356 71.513 49.2677 71.6522C49.1699 71.7617 49.0598 71.8602 48.9393 71.9462L48.2825 72.5566L48.001 72.8053L47.0627 73.5967L46.1244 74.3202L45.8195 74.5463L45.1392 75.0438L44.7874 75.2925L44.1071 75.7673L43.7787 75.9708C43.4503 76.1743 43.1219 76.4004 42.77 76.5813L42.0428 77.0109L40.9873 77.5761L40.7058 77.7118L39.7909 78.1414H39.6736L38.7354 78.5258L37.7267 78.9101H37.4921L36.2489 79.2719L35.5686 79.4302H35.2167L34.2081 79.6111L33.2932 79.7241H31.1586H30.3141H30.1265H29.4697H29.2351L28.4844 79.5432L27.7338 79.2945H27.5227L26.4436 78.978H26.2794L25.5288 78.5936L40.2872 87.4286L42.2947 88.0774L43.633 88.7262H45.6405H47.6481H50.3247L52.0123 88.0774L53.6706 87.4286L55.6781 86.7798L56.7152 85.8289L58.3548 84.8334L61.0315 82.8871L63.7856 80.8656L63.7082 80.9407L65.7157 78.9943L67.7232 77.0479L68.9244 75.5412C69.3935 74.9533 69.9542 74.4145 70.3999 73.804L72.4074 71.2088C72.0321 71.7515 72.8062 70.6662 72.4074 71.2088L73.0766 69.2624C73.405 68.7424 74.7791 65.935 75.0841 65.3697C74.826 65.8445 75.3421 64.9175 75.0841 65.3697C75.3421 64.827 76.1878 63.9886 76.4224 63.4233V61.4769C76.2113 62.0874 76.657 60.8891 76.4224 61.4769L77.0916 59.5306C77.0229 59.6918 77.1322 59.3607 77.0916 59.5306C77.0916 59.4175 77.7608 58.346 77.7608 58.233C77.7608 58.0973 78.3126 55.7509 78.4299 55.6378C78.3361 56.0448 78.5472 55.5248 78.4299 55.6378L78.9644 53.2775L78.9649 53.3302C78.9649 53.0136 78.9179 52.7726 78.9649 52.456C78.9649 52.3656 79.0991 51.8355 79.0991 51.7451C79.0991 51.6546 78.9649 50.7829 78.9649 50.4211C78.9649 50.0593 78.9414 50.2402 78.9649 50.0819Z" fill="url(#paint0_radial)"/>
<path d="M71.3644 2.57758L71.1298 2.44192H70.9891L70.2384 2.10276H70.0273L69.0656 1.46967H68.9248L68.0803 1.10791H67.7989L66.8606 0.813973L65.7581 0.429597H65.4531L64.6087 0.203493H64.3741L63.2481 0H63.0135H62.0752H61.7938H60.5974H59.0258H57.6652H57.4072L55.9763 0.158272C55.4133 0.158272 54.8269 0.339155 54.2639 0.452207H54.1232C53.5602 0.572796 52.9972 0.708458 52.4342 0.859193H52.2935H52.1762L51.2614 1.10791L51.0737 1.28879L49.8774 1.65056H49.5724L48.728 2.10276H48.3057L47.5551 2.3967H47.3205H47.1329L46.0304 2.87151H45.8192C45.3735 3.0524 44.9513 3.25589 44.5056 3.48199L44.1538 3.64027L43.1451 4.13769L42.7698 4.34119L41.4327 5.06472L39.345 6.62483L38.7116 7.03182C38.2659 7.32575 37.7968 7.59708 37.3511 7.91362L36.6005 8.41105L35.3572 9.27024L34.6535 9.76767L33.4102 10.7173L32.7065 11.26L31.3225 12.3905L30.8299 12.7975C30.1966 13.3175 29.5867 13.8601 28.9533 14.4254L28.578 14.7872L27.3582 15.8951L27.1002 16.1664L26.7483 16.4829C26.1854 17.0256 25.6458 17.5909 25.0829 18.1561C24.5199 18.7214 23.9804 19.3092 23.4174 19.8971C23.3206 20.0279 23.2106 20.1491 23.089 20.2589L22.8075 20.5754C22.5495 20.8694 22.3149 21.1633 22.0568 21.4346L21.2593 22.339L20.2975 23.4922L19.5234 24.4192L19.3358 24.7131L17.9283 26.5445C17.4826 27.1098 17.037 27.6977 16.6147 28.2855C16.5656 28.3646 16.5107 28.4401 16.4505 28.5116L15.8875 29.0769L14.832 30.5918L14.3628 31.2927L14.0109 31.7901L13.2603 32.9433L13.0023 33.3729L11.8294 35.2269L11.6887 35.4756L11.501 36.0183C11.1491 36.5835 10.8442 37.1488 10.5158 37.7141C10.5158 37.9176 10.2812 38.0984 10.1874 38.3019L9.9528 38.6863C9.6244 39.2742 9.31945 39.862 9.01451 40.4499C8.9577 40.4764 8.90283 40.5066 8.8503 40.5404L8.07621 42.0552C8.07621 42.2135 7.912 42.3944 7.81818 42.5753C7.72435 42.7562 7.63052 42.9823 7.51323 43.1858C7.23174 43.7962 6.92679 44.4067 6.6453 45.0398C6.59245 45.1721 6.52973 45.3006 6.45764 45.4242V45.5825C6.12924 46.2608 5.84775 46.9617 5.5428 47.6626L5.30823 48.2279C5.16748 48.567 5.02674 48.8836 4.90945 49.2227L4.62796 49.9463L4.34647 50.6472L3.64275 52.5691L3.50201 52.9534C3.24397 53.6996 3.0094 54.4457 2.77482 55.2145C2.6984 55.4214 2.63572 55.6329 2.58717 55.8476C2.44642 56.2545 2.30568 56.6841 2.18839 57.1137C2.0711 57.5433 2.18839 57.3851 2.18839 57.5207L1.81307 58.6286L1.46121 60.0305C1.46121 60.3922 1.29701 60.7314 1.20318 61.0932C1.10935 61.4549 1.20318 61.5906 1.03897 61.8393L0.827857 62.8342V63.0829C0.687112 63.829 0.546367 64.5751 0.42908 65.3439V65.7057C0.42908 66.3161 0.241421 66.904 0.171048 67.4919C0.171048 67.4919 0.171048 67.6954 0.171048 67.8084V68.5546C0.171048 69.0746 0.171048 69.5947 0.00684626 70.1147V70.9287C0.00684626 71.4487 0.00684626 71.9687 0.00684626 72.4888C0.00684626 73.0088 0.00684626 72.9636 0.00684626 73.1897C0.00684626 73.9358 0.00684626 74.682 0.00684626 75.4507C-0.532675 106.382 30.9707 126.46 39.603 131.457L54.475 139.777C45.8192 134.826 14.4332 114.702 14.3393 83.7713C14.3393 83.0252 14.8583 82.3808 14.8583 81.5895C14.8583 81.3408 14.8583 80.5406 14.8583 80.2919C14.8583 80.8119 14.8583 80.0432 14.8583 80.2919V78.3455C14.8583 77.8255 14.6941 77.568 14.8583 77.0479C15.0225 76.5279 15.5275 75.9991 15.5275 75.7503C15.5275 75.072 15.4102 74.5049 15.5275 73.804L15.522 73.8379C15.522 73.0917 15.8521 71.9235 15.9928 71.1322C15.9928 70.5443 16.0559 69.8503 16.1967 69.2624C16.3374 68.6746 16.772 68.3266 16.8659 67.9649V66.6875L17.535 66.0185V64.0721C17.6115 63.8651 18.1556 63.638 18.2042 63.4233L18.8734 61.4769V60.8281L19.5425 58.8818L20.2117 58.233C20.4228 57.6677 20.6463 56.8745 20.8809 56.2866C20.8809 56.1057 20.8105 55.8413 20.8809 55.6378C21.1858 54.8917 21.8908 54.4602 22.2192 53.6914C22.1665 53.8311 22.2915 53.5601 22.2192 53.6914L22.7606 51.517L23.5576 51.0963C23.886 50.418 23.8749 49.1794 24.2267 48.5011C24.219 48.5536 24.219 48.4486 24.2267 48.5011C24.6021 47.7776 25.1663 47.3687 25.5651 46.5547L26.2343 45.9059C26.5314 45.3482 26.5437 44.5324 26.9034 43.9596C27.3257 43.2587 27.7961 42.0653 28.2418 41.3644C28.6171 40.7991 29.2048 39.9607 29.5801 39.418C29.9554 38.8754 30.0851 38.9953 30.2493 38.7692C30.4135 38.5431 31.2358 37.9691 31.5876 37.4717C32.0802 36.7933 32.4099 35.5322 32.926 34.8765L34.9335 32.9301L35.6026 31.6325L36.2718 30.9837C36.5299 30.6672 37.3287 29.9801 37.6102 29.6862C37.8917 29.3922 37.9275 29.4217 38.2793 29.0374V28.3886L40.2868 26.4422C40.8264 25.8769 41.0622 25.7099 41.6252 25.1446L42.2944 24.4958C42.7635 24.021 43.1401 23.6505 43.6327 23.1982L44.3019 22.5495L45.6402 21.2519H46.3094L47.6477 19.9543L48.3169 19.3055L49.6552 18.6567C49.9133 18.4758 50.0664 18.1662 50.3244 18.0079L51.6628 17.3591L52.3319 16.7103C52.7776 16.4164 53.2011 15.6841 53.6703 15.4128H54.3394C55.0197 14.9832 55.6901 14.4995 56.347 14.1152L57.6853 13.4664L58.1109 12.8201L59.1196 12.3L59.4715 12.1418L60.7851 11.5313H60.9962L62.0987 11.0791L62.4975 10.8982L63.2716 10.6269L63.6938 10.4686L64.5148 10.1747H64.8432L65.9926 9.81289H66.2038L67.1186 9.56418H67.3766L68.9717 8.88587H69.1125L70.8249 8.59193L72.2323 8.41105H72.5138H73.8743H75.4225H76.6423H76.8769H77.8152H78.0498L79.1523 8.56932H79.4103L80.2548 8.75021H80.5363L81.5918 8.99892L82.5301 9.29285H82.8116L83.6092 9.58679H83.7968C84.1199 9.69918 84.4336 9.83524 84.7351 9.99377C84.8128 9.98154 84.892 9.98154 84.9697 9.99377L85.7204 10.3555L86.0957 10.559L71.3644 2.57758Z" fill="url(#paint1_radial)"/>
<path d="M56.281 13.7244C79.5273 0.791263 98.5044 11.192 98.5044 36.9226C98.5982 67.6727 67.4936 122.774 58.8144 137.358C58.3148 138.282 57.5702 139.062 56.6563 139.619C56.3415 139.832 55.9739 139.96 55.5908 139.992C55.2077 140.024 54.8227 139.958 54.4748 139.8C45.819 134.825 14.4329 114.702 14.3391 83.7712C14.2687 58.0181 33.0346 26.6575 56.281 13.7244ZM79.0347 48.5895C79.41 34.1415 69.0887 28.2402 56.3514 35.2947L55.6007 35.7243C43.7547 42.8013 34.1372 58.7868 33.8087 72.1947C33.4334 86.6201 43.7547 92.5441 56.4921 85.4896L57.2427 85.06C69.0887 78.0508 78.7063 61.9749 79.0347 48.6574V48.5895Z" fill="url(#paint2_radial)"/>
<defs>
<radialGradient id="paint0_radial" cx="0" cy="0" r="1" gradientUnits="userSpaceOnUse" gradientTransform="translate(55.5309 97.9254) scale(74.5243 71.8331)">
<stop stop-color="#D70E5F"/>
<stop offset="1" stop-color="#E51368"/>
</radialGradient>
<radialGradient id="paint1_radial" cx="0" cy="0" r="1" gradientUnits="userSpaceOnUse" gradientTransform="translate(25.5755 111.446) scale(104.737 100.955)">
<stop stop-color="#B6004A"/>
<stop offset="1" stop-color="#E51368"/>
</radialGradient>
<radialGradient id="paint2_radial" cx="0" cy="0" r="1" gradientUnits="userSpaceOnUse" gradientTransform="translate(57.4773 146.628) scale(169.504 163.382)">
<stop stop-color="#E51368"/>
<stop offset="1" stop-color="#FA287D"/>
</radialGradient>
</defs>
</svg>
