<svg width="73" height="140" viewBox="0 0 73 140" fill="none" xmlns="http://www.w3.org/2000/svg">
<path d="M52.9644 50.0819C53.0619 49.4239 53.0986 48.9985 53.0986 48.5011C53.2676 45.3321 52.5726 42.2549 51.3224 39.3194C50.3578 37.0085 48.647 35.0582 46.4432 33.7573L31.5947 25.4141C35.817 27.6751 38.3504 32.9207 38.1862 40.2238C38.1862 40.7213 38.1862 41.2187 38.1862 41.7387C38.1966 41.8893 38.1966 42.0404 38.1862 42.1909C38.1862 42.5527 38.1862 42.9145 38.0689 43.2988C38.0805 43.4569 38.0805 43.6156 38.0689 43.7737C38.0689 44.1128 38.0689 44.4294 37.9047 44.7685V45.2207L37.6232 46.6452C37.6232 47.0748 37.4121 47.5044 37.3183 47.9114C37.2244 48.3183 37.3183 48.1827 37.201 48.2957C37.0837 48.4088 37.0602 48.9062 36.9664 49.2001C36.8726 49.4941 36.9664 49.4262 36.9664 49.5167L36.6849 50.4211L36.5442 50.8733C36.5442 51.0768 36.38 51.3029 36.3096 51.529C36.0985 52.1395 35.8874 52.7274 35.6293 53.3378C35.597 53.4456 35.5578 53.5513 35.512 53.6544L34.8787 55.1467C34.814 55.2706 34.7591 55.3991 34.7145 55.531C34.4565 56.0963 34.1984 56.639 33.9169 57.2042C33.9169 57.3173 33.7996 57.4077 33.7527 57.5208C33.5182 57.9956 33.2601 58.4478 33.0021 58.9226L32.791 59.307C32.486 59.8496 32.1811 60.3923 31.8527 60.9349L31.6885 61.2062L30.7736 62.6533L30.5391 62.9925C30.1872 63.5577 29.7884 64.1004 29.4131 64.643L29.1785 64.9596C28.7328 65.57 28.2871 66.1579 27.818 66.7458L27.3723 67.2658L26.9266 67.8085C26.7624 67.9893 26.6217 68.1702 26.4575 68.3285C26.314 68.5194 26.1572 68.7007 25.9883 68.8712C25.9229 68.9645 25.8439 69.0482 25.7537 69.1199C25.4723 69.4364 25.1908 69.7529 24.8858 70.0469C24.773 70.1857 24.6474 70.3143 24.5105 70.4313L23.7364 71.2C23.592 71.3618 23.4351 71.513 23.2673 71.6522C23.1695 71.7617 23.0593 71.8602 22.9389 71.9462L22.282 72.5566L22.0006 72.8053L21.0623 73.5967L20.124 74.3202L19.819 74.5463L19.1387 75.0438L18.7869 75.2925L18.1066 75.7673L17.7782 75.9708C17.4498 76.1743 17.1214 76.4004 16.7695 76.5813L16.0424 77.0109L14.9868 77.5761L14.7053 77.7118L13.7904 78.1414H13.6732L12.7349 78.5258L11.7262 78.9101H11.4916L10.2484 79.2719L9.56811 79.4302H9.21625L8.20758 79.6111L7.29274 79.7241H5.15811H4.31364H4.12598H3.46917H3.2346L2.48396 79.5432L1.73332 79.2945H1.5222L0.443161 78.978H0.27896L-0.47168 78.5936L14.2867 87.4286L16.2942 88.0774L17.6325 88.7262H19.6401H21.6476H24.3243L26.0118 88.0774L27.6701 87.4286L29.6776 86.7798L30.7147 85.8289L32.3543 84.8334L35.031 82.8871L37.7851 80.8656L37.7077 80.9407L39.7152 78.9943L41.7227 77.0479L42.9239 75.5412C43.3931 74.9533 43.9537 74.4145 44.3994 73.804L46.4069 71.2088C46.0316 71.7515 46.8057 70.6662 46.4069 71.2088L47.0761 69.2624C47.4045 68.7424 48.7786 65.935 49.0836 65.3697C48.8256 65.8445 49.3416 64.9175 49.0836 65.3697C49.3416 64.827 50.1874 63.9886 50.4219 63.4233V61.4769C50.2108 62.0874 50.6565 60.8891 50.4219 61.4769L51.0911 59.5306C51.0224 59.6918 51.1317 59.3607 51.0911 59.5306C51.0911 59.4175 51.7603 58.346 51.7603 58.233C51.7603 58.0973 52.3122 55.7509 52.4294 55.6378C52.3356 56.0448 52.5467 55.5248 52.4294 55.6378L52.964 53.2775L52.9644 53.3302C52.9644 53.0136 52.9175 52.7726 52.9644 52.456C52.9644 52.3656 53.0986 51.8355 53.0986 51.7451C53.0986 51.6546 52.9644 50.7829 52.9644 50.4211C52.9644 50.0593 52.9409 50.2402 52.9644 50.0819Z" fill="url(#paint0_radial)"/>
<path d="M45.3644 2.57758L45.1298 2.44192H44.9891L44.2384 2.10276H44.0273L43.0656 1.46967H42.9248L42.0803 1.10791H41.7989L40.8606 0.813973L39.7581 0.429597H39.4531L38.6087 0.203493H38.3741L37.2481 0H37.0135H36.0752H35.7938H34.5974H33.0258H31.6652H31.4072L29.9763 0.158272C29.4133 0.158272 28.8269 0.339155 28.2639 0.452207H28.1232C27.5602 0.572796 26.9972 0.708458 26.4342 0.859193H26.2935H26.1762L25.2614 1.10791L25.0737 1.28879L23.8774 1.65056H23.5724L22.728 2.10276H22.3057L21.5551 2.3967H21.3205H21.1329L20.0304 2.87151H19.8192C19.3735 3.0524 18.9513 3.25589 18.5056 3.48199L18.1538 3.64027L17.1451 4.13769L16.7698 4.34119L15.4327 5.06472L13.345 6.62483L12.7116 7.03182C12.2659 7.32575 11.7968 7.59708 11.3511 7.91362L10.6005 8.41105L9.35722 9.27024L8.65349 9.76767L7.41025 10.7173L6.70652 11.26L5.32253 12.3905L4.82993 12.7975C4.19658 13.3175 3.58668 13.8601 2.95333 14.4254L2.57801 14.7872L1.35823 15.8951L1.10019 16.1664L0.748335 16.4829C0.185356 17.0256 -0.354166 17.5909 -0.917145 18.1561C-1.48012 18.7214 -2.01965 19.3092 -2.58262 19.8971C-2.67936 20.0279 -2.78937 20.1491 -2.91103 20.2589L-3.19252 20.5754C-3.45055 20.8694 -3.68512 21.1633 -3.94316 21.4346L-4.74071 22.339L-5.70246 23.4922L-6.47656 24.4192L-6.66422 24.7131L-8.07167 26.5445C-8.51736 27.1098 -8.96305 27.6977 -9.38528 28.2855C-9.43439 28.3646 -9.48927 28.4401 -9.54949 28.5116L-10.1125 29.0769L-11.168 30.5918L-11.6372 31.2927L-11.9891 31.7901L-12.7397 32.9433L-12.9977 33.3729L-14.1706 35.2269L-14.3113 35.4756L-14.499 36.0183C-14.8509 36.5835 -15.1558 37.1488 -15.4842 37.7141C-15.4842 37.9176 -15.7188 38.0984 -15.8126 38.3019L-16.0472 38.6863C-16.3756 39.2742 -16.6805 39.862 -16.9855 40.4499C-17.0423 40.4764 -17.0972 40.5066 -17.1497 40.5404L-17.9238 42.0552C-17.9238 42.2135 -18.088 42.3944 -18.1818 42.5753C-18.2757 42.7562 -18.3695 42.9823 -18.4868 43.1858C-18.7683 43.7962 -19.0732 44.4067 -19.3547 45.0398C-19.4076 45.1721 -19.4703 45.3006 -19.5424 45.4242V45.5825C-19.8708 46.2608 -20.1522 46.9617 -20.4572 47.6626L-20.6918 48.2279C-20.8325 48.567 -20.9733 48.8836 -21.0905 49.2227L-21.372 49.9463L-21.6535 50.6472L-22.3572 52.5691L-22.498 52.9534C-22.756 53.6996 -22.9906 54.4457 -23.2252 55.2145C-23.3016 55.4214 -23.3643 55.6329 -23.4128 55.8476C-23.5536 56.2545 -23.6943 56.6841 -23.8116 57.1137C-23.9289 57.5433 -23.8116 57.3851 -23.8116 57.5207L-24.1869 58.6286L-24.5388 60.0305C-24.5388 60.3922 -24.703 60.7314 -24.7968 61.0932C-24.8907 61.4549 -24.7968 61.5906 -24.961 61.8393L-25.1721 62.8342V63.0829C-25.3129 63.829 -25.4536 64.5751 -25.5709 65.3439V65.7057C-25.5709 66.3161 -25.7586 66.904 -25.829 67.4919C-25.829 67.4919 -25.829 67.6954 -25.829 67.8084V68.5546C-25.829 69.0746 -25.829 69.5947 -25.9932 70.1147V70.9287C-25.9932 71.4487 -25.9932 71.9687 -25.9932 72.4888C-25.9932 73.0088 -25.9932 72.9636 -25.9932 73.1897C-25.9932 73.9358 -25.9932 74.682 -25.9932 75.4507C-26.5327 106.382 4.97067 126.46 13.603 131.457L28.475 139.777C19.8192 134.826 -11.5668 114.702 -11.6607 83.7713C-11.6607 83.0252 -11.1417 82.3808 -11.1417 81.5895C-11.1417 81.3408 -11.1417 80.5406 -11.1417 80.2919C-11.1417 80.8119 -11.1417 80.0432 -11.1417 80.2919V78.3455C-11.1417 77.8255 -11.3059 77.568 -11.1417 77.0479C-10.9775 76.5279 -10.4725 75.9991 -10.4725 75.7503C-10.4725 75.072 -10.5898 74.5049 -10.4725 73.804L-10.478 73.8379C-10.478 73.0917 -10.1479 71.9235 -10.0072 71.1322C-10.0072 70.5443 -9.94406 69.8503 -9.80331 69.2624C-9.66257 68.6746 -9.22797 68.3266 -9.13414 67.9649V66.6875L-8.46497 66.0185V64.0721C-8.38855 63.8651 -7.84435 63.638 -7.7958 63.4233L-7.12663 61.4769V60.8281L-6.45746 58.8818L-5.78829 58.233C-5.57717 57.6677 -5.35369 56.8745 -5.11912 56.2866C-5.11912 56.1057 -5.18949 55.8413 -5.11912 55.6378C-4.81417 54.8917 -4.10918 54.4602 -3.78077 53.6914C-3.83348 53.8311 -3.70852 53.5601 -3.78077 53.6914L-3.23943 51.517L-2.44243 51.0963C-2.11403 50.418 -2.12512 49.1794 -1.77326 48.5011C-1.78096 48.5536 -1.78096 48.4486 -1.77326 48.5011C-1.39794 47.7776 -0.833694 47.3687 -0.434917 46.5547L0.234255 45.9059C0.531382 45.3482 0.543745 44.5324 0.903425 43.9596C1.32566 43.2587 1.79608 42.0653 2.24177 41.3644C2.61709 40.7991 3.20479 39.9607 3.58011 39.418C3.95543 38.8754 4.08508 38.9953 4.24928 38.7692C4.41348 38.5431 5.23576 37.9691 5.58762 37.4717C6.08023 36.7933 6.4099 35.5322 6.92596 34.8765L8.93348 32.9301L9.60265 31.6325L10.2718 30.9837C10.5299 30.6672 11.3287 29.9801 11.6102 29.6862C11.8917 29.3922 11.9275 29.4217 12.2793 29.0374V28.3886L14.2868 26.4422C14.8264 25.8769 15.0622 25.7099 15.6252 25.1446L16.2944 24.4958C16.7635 24.021 17.1401 23.6505 17.6327 23.1982L18.3019 22.5495L19.6402 21.2519H20.3094L21.6477 19.9543L22.3169 19.3055L23.6552 18.6567C23.9133 18.4758 24.0664 18.1662 24.3244 18.0079L25.6628 17.3591L26.3319 16.7103C26.7776 16.4164 27.2011 15.6841 27.6703 15.4128H28.3394C29.0197 14.9832 29.6901 14.4995 30.347 14.1152L31.6853 13.4664L32.1109 12.8201L33.1196 12.3L33.4715 12.1418L34.7851 11.5313H34.9962L36.0987 11.0791L36.4975 10.8982L37.2716 10.6269L37.6938 10.4686L38.5148 10.1747H38.8432L39.9926 9.81289H40.2038L41.1186 9.56418H41.3766L42.9717 8.88587H43.1125L44.8249 8.59193L46.2323 8.41105H46.5138H47.8743H49.4225H50.6423H50.8769H51.8152H52.0498L53.1523 8.56932H53.4103L54.2548 8.75021H54.5363L55.5918 8.99892L56.5301 9.29285H56.8116L57.6092 9.58679H57.7968C58.1199 9.69918 58.4336 9.83524 58.7351 9.99377C58.8128 9.98154 58.892 9.98154 58.9697 9.99377L59.7204 10.3555L60.0957 10.559L45.3644 2.57758Z" fill="url(#paint1_radial)"/>
<path d="M30.281 13.7244C53.5273 0.791263 72.5044 11.192 72.5044 36.9226C72.5982 67.6727 41.4936 122.774 32.8144 137.358C32.3148 138.282 31.5702 139.062 30.6563 139.619C30.3415 139.832 29.9739 139.96 29.5908 139.992C29.2077 140.024 28.8227 139.958 28.4748 139.8C19.819 134.825 -11.5671 114.702 -11.6609 83.7712C-11.7313 58.0181 7.03465 26.6575 30.281 13.7244ZM53.0347 48.5895C53.41 34.1415 43.0887 28.2402 30.3514 35.2947L29.6007 35.7243C17.7547 42.8013 8.13715 58.7868 7.80875 72.1947C7.43343 86.6201 17.7547 92.5441 30.4921 85.4896L31.2427 85.06C43.0887 78.0508 52.7063 61.9749 53.0347 48.6574V48.5895Z" fill="url(#paint2_radial)"/>
<defs>
<radialGradient id="paint0_radial" cx="0" cy="0" r="1" gradientUnits="userSpaceOnUse" gradientTransform="translate(29.5304 97.9254) scale(74.5243 71.8331)">
<stop stop-color="#D70E5F"/>
<stop offset="1" stop-color="#E51368"/>
</radialGradient>
<radialGradient id="paint1_radial" cx="0" cy="0" r="1" gradientUnits="userSpaceOnUse" gradientTransform="translate(-0.424543 111.446) scale(104.737 100.955)">
<stop stop-color="#B6004A"/>
<stop offset="1" stop-color="#E51368"/>
</radialGradient>
<radialGradient id="paint2_radial" cx="0" cy="0" r="1" gradientUnits="userSpaceOnUse" gradientTransform="translate(31.4773 146.628) scale(169.504 163.382)">
<stop stop-color="#E51368"/>
<stop offset="1" stop-color="#FA287D"/>
</radialGradient>
</defs>
</svg>
