<svg width="41" height="47" viewBox="0 0 41 47" fill="none" xmlns="http://www.w3.org/2000/svg">
<g clip-path="url(#clip0)">
<path d="M34.8012 4.17501C32.6257 1.73858 28.693 0.694031 23.6619 0.694031H9.06022C8.56244 0.694049 8.081 0.868538 7.70244 1.18613C7.32389 1.50372 7.07306 1.94357 6.99504 2.42662L0.915191 40.3133C0.794344 41.0604 1.38312 41.7369 2.1538 41.7369H11.1683L13.4323 27.6278L13.362 28.0696C13.5233 27.0723 14.3914 26.3367 15.4194 26.3367H19.7031C28.1184 26.3367 34.7077 22.9783 36.6325 13.2632C36.6897 12.9759 36.7392 12.6962 36.7819 12.423C36.539 12.2966 36.539 12.2966 36.7819 12.423C37.3551 8.83216 36.778 6.38791 34.8012 4.17501Z" fill="#27346A"/>
<path d="M16.8816 11.1294C17.128 11.0141 17.3976 10.9544 17.6705 10.9546H29.118C30.4735 10.9546 31.7379 11.0412 32.8933 11.2239C33.2166 11.2746 33.5382 11.3351 33.8577 11.4053C34.3106 11.5034 34.7582 11.6236 35.1989 11.7653C35.7669 11.9517 36.2959 12.1688 36.7821 12.423C37.3551 8.83078 36.778 6.38791 34.8012 4.175C32.6244 1.73858 28.693 0.694031 23.6619 0.694031H9.05898C8.03083 0.694031 7.15617 1.42947 6.99504 2.42662L0.915192 40.3119C0.794345 41.0602 1.38313 41.7358 2.15255 41.7358H11.1683L15.8653 12.4702C15.9115 12.1826 16.0281 11.9102 16.2052 11.6767C16.3822 11.4431 16.6143 11.2553 16.8816 11.1294Z" fill="#27346A"/>
<path d="M36.6318 13.2634C34.707 22.9772 28.1178 26.3369 19.7023 26.3369H15.4174C14.3894 26.3369 13.5212 27.0725 13.3614 28.0698L10.5449 45.6128C10.4397 46.2666 10.9543 46.8591 11.6276 46.8591H19.2266C19.6619 46.8589 20.0829 46.7062 20.4138 46.4284C20.7448 46.1506 20.964 45.7658 21.032 45.3434L21.106 44.9629L22.5382 36.0444L22.6305 35.5515C22.6985 35.1291 22.9177 34.7444 23.2486 34.4666C23.5795 34.1887 24.0004 34.036 24.4357 34.0359H25.573C32.9342 34.0359 38.6982 31.0975 40.3826 22.5993C41.0856 19.0479 40.7219 16.0829 38.862 14.0002C38.2979 13.3694 37.5973 12.8484 36.7812 12.4232C36.737 12.6978 36.6891 12.976 36.6318 13.2634Z" fill="#2790C3"/>
<path d="M34.7675 11.634C34.4674 11.5479 34.1644 11.4716 33.8591 11.4054C33.5395 11.3363 33.2178 11.2763 32.8947 11.2253C31.738 11.0414 30.4746 10.9545 29.1178 10.9545H17.6718C17.3986 10.9539 17.1289 11.0142 16.8828 11.1308C16.6153 11.2563 16.3829 11.444 16.2058 11.6776C16.0287 11.9112 15.9122 12.1838 15.8664 12.4716L13.4335 27.6279L13.3633 28.0698C13.5233 27.0725 14.3914 26.3369 15.4196 26.3369H19.7045C28.1198 26.3369 34.709 22.9785 36.6338 13.2633C36.6911 12.976 36.7392 12.6976 36.7833 12.4231C36.2959 12.1703 35.7683 11.9518 35.2002 11.7667C35.0568 11.72 34.9126 11.6757 34.7677 11.634" fill="#1F264F"/>
</g>
<defs>
<clipPath id="clip0">
<rect width="39.9702" height="46.3291" fill="white" transform="translate(0.893555 0.56897)"/>
</clipPath>
</defs>
</svg>
