<?xml version="1.0" encoding="utf-8"?>
<!-- Generator: Adobe Illustrator 25.2.3, SVG Export Plug-In . SVG Version: 6.00 Build 0)  -->
<svg version="1.1" id="Слой_1" xmlns="http://www.w3.org/2000/svg" xmlns:xlink="http://www.w3.org/1999/xlink" x="0px" y="0px"
	 viewBox="0 0 6928.52 2000" style="enable-background:new 0 0 6928.52 2000;" xml:space="preserve">
<style type="text/css">
	.st0{fill:#E51368;}
	.st1{fill:#3A0B84;}
</style>
<g>
	<g>
		<g>
			<path class="st0" d="M953.36,1747.06c-69.66-44.7-152.45-70.65-241.18-70.65s-171.47,25.96-241.14,70.65h-0.04
				c-46.92,30.13-87.9,68.8-120.71,113.74L458.25,2000c25.13-51.13,65.25-93.64,114.56-121.66c41.15-23.48,88.73-36.85,139.37-36.85
				c50.68,0,98.26,13.37,139.41,36.85c49.32,28.02,89.43,70.53,114.52,121.66l107.96-139.2
				C1041.27,1815.81,1000.29,1777.19,953.36,1747.06z"/>
		</g>
		<g>
			<path class="st0" d="M1127.36,1522.72c-117.99-81.71-261.11-129.63-415.17-129.63c-154.02,0-297.14,47.91-415.13,129.63
				c-45.52,31.49-87.28,68.01-124.55,108.79l103.05,132.89c35.25-42.71,76.64-80.19,122.82-111.01
				c89.88-60.13,197.8-95.21,313.81-95.21s223.97,35.08,313.85,95.21c46.18,30.87,87.53,68.34,122.78,111.01l103.05-132.89
				C1214.64,1590.73,1172.83,1554.21,1127.36,1522.72z"/>
		</g>
		<g>
			<path class="st0" d="M1411.2,1382.98L712.18,0L13.16,1382.98L0,1409.06l96.4,124.3c38.17-39.78,80.14-75.9,125.38-107.67
				c138.87-97.81,308.03-155.3,490.4-155.3s351.53,57.49,490.4,155.3c45.23,31.78,87.2,67.89,125.38,107.67l96.4-124.3
				L1411.2,1382.98z M712.18,1105.32c-146.88,0-289.01,30.87-418.97,89.55l418.97-828.94l419.01,828.94
				C1001.19,1136.19,859.06,1105.32,712.18,1105.32z"/>
		</g>
	</g>
	<g>
		<g>
			<path class="st1" d="M2007.78,1219.03h-153.59V529.71h240.7c155.46,0,269.72,88.03,269.72,250.07
				c0,87.1-39.33,157.35-102.07,201.36l159.21,237.89h-191.06l-118.95-190.12c-3.75,0-8.44,0-12.17,0h-91.79V1219.03z
				 M2063.03,926.82c97.4,0,141.42-44.02,141.42-129.25c0-86.15-46.83-133.92-141.42-133.92h-55.26v263.17H2063.03z"/>
		</g>
		<g>
			<path class="st1" d="M2937.19,1105.7h-262.24l-38.4,113.33h-162.96l242.58-689.32h174.2l264.1,689.32h-175.14L2937.19,1105.7z
				 M2902.55,998.93l-103.02-295.02l-93.65,295.02H2902.55z"/>
		</g>
		<g>
			<path class="st1" d="M3397.44,802.25v416.78H3247.6V529.71h99.27l365.26,414.9v-414.9h149.84v689.32h-97.41L3397.44,802.25z"/>
		</g>
		<g>
			<path class="st1" d="M3961.75,887.48c0-256.62,138.6-371.81,347.47-371.81c73.05,0,141.42,14.04,191.99,45.89l20.61,152.66
				c-57.14-35.58-121.76-55.26-191.99-55.26c-133,0-207.93,85.23-207.93,218.22c0,164.83,81.48,221.97,178.89,221.97
				c28.09,0,56.19-2.82,84.3-14.06v-222.9h152.66v319.38c-67.44,34.65-147.04,50.57-236.96,50.57
				C4135.95,1232.14,3961.75,1152.54,3961.75,887.48z"/>
		</g>
		<g>
			<path class="st1" d="M4672.31,529.71h452.36v133.94h-298.77v154.53h268.79v104.89h-268.79v162.03h309.06v133.94h-462.65V529.71z"
				/>
		</g>
		<g>
			<path class="st1" d="M5252.48,529.71h448.61v133.94h-295.02v192.93h265.04v133.94h-265.04v228.52h-153.59V529.71z"/>
		</g>
		<g>
			<path class="st1" d="M5799.42,933.37V529.71h153.59v400.86c0,127.37,57.12,153.59,135.8,153.59
				c85.22,0,129.23-37.46,129.23-153.59V529.71h154.54v403.66c0,210.73-91.79,298.77-291.28,298.77
				C5895.87,1232.14,5799.42,1156.27,5799.42,933.37z"/>
		</g>
		<g>
			<path class="st1" d="M6510.82,529.71h153.59v555.39h264.1v133.94h-417.7V529.71z"/>
		</g>
	</g>
	<g>
		<path class="st0" d="M1978.86,1814.39h-120.22v-341.03h111.8c72.53,0,119.76,28.07,119.76,88.41c0,36.96-14.48,65.96-61.27,80.93
			c57.53,8.89,76.24,37.42,76.24,78.13C2105.16,1787.26,2054.64,1814.39,1978.86,1814.39z M1964.36,1622.59
			c45.86,0,66.91-13.1,66.91-50.06c0-36.02-24.32-51.45-72.04-51.45h-42.1v101.52H1964.36z M1969.04,1766.67
			c50.99,0,73.92-14.51,73.92-53.33c0-36.95-29.48-49.11-78.61-49.11h-47.23v102.44H1969.04z"/>
		<path class="st0" d="M2196.27,1473.36h210.5v50.99h-152.04v94.03h137.07v45.85h-137.07v99.17h157.2v50.99h-215.66V1473.36z"/>
		<path class="st0" d="M2657.6,1814.39h-59.42v-125.38l-117.9-215.66h69.72l81.86,158.12l80-158.12h62.22l-116.49,215.66V1814.39z"
			/>
		<path class="st0" d="M2816.73,1645.05c0-114.14,61.76-180.1,160.93-180.1c98.24,0,156.71,62.21,156.71,178.23
			c0,116.47-67.81,177.76-161.86,177.76C2872.41,1820.93,2816.73,1761.06,2816.73,1645.05z M3074.49,1644.11
			c0-83.26-39.29-124.9-98.68-124.9c-59.88,0-99.2,41.64-99.2,124.9c0,84.68,37.9,122.57,99.66,122.57
			C3034.27,1766.67,3074.49,1726.92,3074.49,1644.11z"/>
		<path class="st0" d="M3282.44,1581.89v232.5h-56.12v-341.03h31.79l209.11,231.57v-231.57h56.14v341.03h-31.82L3282.44,1581.89z"/>
		<path class="st0" d="M3626.72,1473.36h109.92c130.53,0,178.25,64.56,178.25,166.54c0,106.67-58.02,174.5-179.17,174.5h-108.99
			V1473.36z M3725.41,1763.4c88.89,0,127.72-38.83,127.72-121.63c0-77.66-34.6-117.43-127.23-117.43h-40.71v239.05H3725.41z"/>
		<path class="st0" d="M4162.42,1673.12v-199.76h58.49v198.82c0,75.79,34.14,92.63,79.98,92.63c52.41,0,78.61-22.92,78.61-92.63
			v-198.82h58.46v199.76c0,105.25-43.98,147.35-139.42,147.35C4212.94,1820.47,4162.42,1783.99,4162.42,1673.12z"/>
		<path class="st0" d="M4596.13,1581.89v232.5h-56.14v-341.03h31.82l209.09,231.57v-231.57h56.14v341.03h-31.79L4596.13,1581.89z"/>
		<path class="st0" d="M4940.41,1473.36h58.46v290.04h141.74v50.99h-200.2V1473.36z"/>
		<path class="st0" d="M5225.04,1473.36h58.95v341.03h-58.95V1473.36z"/>
		<path class="st0" d="M5448.4,1595.92v218.47h-52.87v-341.03h47.25l130.04,240.92l130.06-240.92h43.03v341.03h-54.26v-217.53
			l-118.37,217.53h-7.01L5448.4,1595.92z"/>
		<path class="st0" d="M5858.72,1473.36h58.95v341.03h-58.95V1473.36z"/>
		<path class="st0" d="M6154.63,1529.96v284.43h-58.49v-284.43h-97.75v-56.61h254v56.61H6154.63z"/>
		<path class="st0" d="M6328.53,1473.36h210.5v50.99h-152.04v94.03h137.07v45.85h-137.07v99.17h157.2v50.99h-215.66V1473.36z"/>
		<path class="st0" d="M6631.94,1473.36h109.92c130.53,0,178.25,64.56,178.25,166.54c0,106.67-58,174.5-179.17,174.5h-108.99
			V1473.36z M6730.62,1763.4c88.89,0,127.72-38.83,127.72-121.63c0-77.66-34.6-117.43-127.23-117.43h-40.71v239.05H6730.62z"/>
	</g>
</g>
</svg>
