<?xml version="1.0" encoding="utf-8"?>
<!-- Generator: Adobe Illustrator 25.2.3, SVG Export Plug-In . SVG Version: 6.00 Build 0)  -->
<svg version="1.1" id="Слой_1" xmlns="http://www.w3.org/2000/svg" xmlns:xlink="http://www.w3.org/1999/xlink" x="0px" y="0px"
	 viewBox="0 0 6928.52 2000" style="enable-background:new 0 0 6928.52 2000;" xml:space="preserve">
<style type="text/css">
	.st0{fill:#FFFFFF;}
</style>
<path class="st0" d="M1074.08,1860.8L966.11,2000c-25.09-51.13-65.2-93.64-114.52-121.66c-41.15-23.48-88.73-36.85-139.41-36.85
	c-50.64,0-98.22,13.37-139.37,36.85c-49.32,28.02-89.43,70.53-114.56,121.66l-107.96-139.2c32.81-44.94,73.79-83.61,120.71-113.74
	h0.04c69.66-44.7,152.41-70.65,241.14-70.65s171.52,25.96,241.18,70.65C1000.29,1777.19,1041.27,1815.81,1074.08,1860.8z
	 M1127.36,1522.72c-117.99-81.71-261.11-129.63-415.17-129.63c-154.02,0-297.14,47.91-415.13,129.63
	c-45.52,31.49-87.28,68.01-124.55,108.79l103.05,132.89c35.25-42.71,76.64-80.19,122.82-111.01
	c89.88-60.13,197.8-95.21,313.81-95.21s223.97,35.08,313.85,95.21c46.18,30.87,87.53,68.34,122.78,111.01l103.05-132.89
	C1214.64,1590.73,1172.83,1554.21,1127.36,1522.72z M1424.37,1409.06l-96.4,124.3c-38.17-39.78-80.14-75.9-125.38-107.67
	c-138.87-97.81-308.03-155.3-490.4-155.3s-351.53,57.49-490.4,155.3c-45.23,31.78-87.2,67.89-125.38,107.67L0,1409.06l13.16-26.08
	L712.18,0l699.02,1382.98L1424.37,1409.06z M1131.19,1194.87L712.18,365.94l-418.97,828.94c129.96-58.68,272.09-89.55,418.97-89.55
	S1001.19,1136.19,1131.19,1194.87z M2007.78,1028.91h91.79c3.74,0,8.42,0,12.17,0l118.95,190.12h191.06l-159.21-237.89
	c62.74-44.02,102.07-114.26,102.07-201.36c0-162.03-114.26-250.07-269.72-250.07h-240.7v689.32h153.59V1028.91z M2007.78,926.82
	V663.65h55.26c94.59,0,141.42,47.77,141.42,133.92c0,85.23-44.02,129.25-141.42,129.25H2007.78z M2979.34,1219.03h175.14
	l-264.1-689.32h-174.2l-242.58,689.32h162.96l38.4-113.33h262.24L2979.34,1219.03z M2705.87,998.93l93.65-295.02l103.02,295.02
	H2705.87z M3764.57,1219.03h97.41V529.71h-149.84v414.9l-365.26-414.9h-99.27v689.32h149.84V802.25L3764.57,1219.03z
	 M4300.78,1232.14c89.92,0,169.52-15.92,236.96-50.57V862.19h-152.66v222.9c-28.11,11.24-56.21,14.06-84.3,14.06
	c-97.4,0-178.89-57.14-178.89-221.97c0-132.99,74.93-218.22,207.93-218.22c70.23,0,134.85,19.67,191.99,55.26l-20.61-152.66
	c-50.57-31.85-118.95-45.89-191.99-45.89c-208.87,0-347.47,115.2-347.47,371.81C3961.75,1152.54,4135.95,1232.14,4300.78,1232.14z
	 M4672.31,1219.03h462.65V1085.1h-309.06V923.07h268.79V818.17h-268.79V663.65h298.77V529.71h-452.36V1219.03z M5252.48,1219.03
	h153.59V990.51h265.04V856.57h-265.04V663.65h295.02V529.71h-448.61V1219.03z M6081.31,1232.14c199.5,0,291.28-88.03,291.28-298.77
	V529.71h-154.54v400.86c0,116.13-44.02,153.59-129.23,153.59c-78.68,0-135.8-26.23-135.8-153.59V529.71h-153.59v403.66
	C5799.42,1156.27,5895.87,1232.14,6081.31,1232.14z M6510.82,1219.03h417.7V1085.1h-264.1V529.71h-153.59V1219.03z M2105.16,1720.84
	c0-40.71-18.71-69.24-76.24-78.13c46.79-14.97,61.27-43.97,61.27-80.93c0-60.34-47.23-88.41-119.76-88.41h-111.8v341.03h120.22
	C2054.64,1814.39,2105.16,1787.26,2105.16,1720.84z M1917.13,1622.59v-101.52h42.1c47.72,0,72.04,15.43,72.04,51.45
	c0,36.96-21.05,50.06-66.91,50.06H1917.13z M1917.13,1766.67v-102.44h47.23c49.13,0,78.61,12.16,78.61,49.11
	c0,38.83-22.93,53.33-73.92,53.33H1917.13z M2196.27,1814.39h215.66v-50.99h-157.2v-99.17h137.07v-45.85h-137.07v-94.03h152.04
	v-50.99h-210.5V1814.39z M2657.6,1689.01l116.49-215.66h-62.22l-80,158.12l-81.86-158.12h-69.72l117.9,215.66v125.38h59.42V1689.01z
	 M2972.51,1820.93c94.04,0,161.86-61.28,161.86-177.76c0-116.02-58.46-178.23-156.71-178.23c-99.17,0-160.93,65.96-160.93,180.1
	C2816.73,1761.06,2872.41,1820.93,2972.51,1820.93z M2976.27,1766.67c-61.76,0-99.66-37.89-99.66-122.57
	c0-83.26,39.32-124.9,99.2-124.9c59.39,0,98.68,41.64,98.68,124.9C3074.49,1726.92,3034.27,1766.67,2976.27,1766.67z
	 M3491.56,1814.39h31.82v-341.03h-56.14v231.57l-209.11-231.57h-31.79v341.03h56.12v-232.5L3491.56,1814.39z M3626.72,1814.39
	h108.99c121.15,0,179.17-67.83,179.17-174.5c0-101.98-47.72-166.54-178.25-166.54h-109.92V1814.39z M3685.19,1763.4v-239.05h40.71
	c92.63,0,127.23,39.77,127.23,117.43c0,82.8-38.83,121.63-127.72,121.63H3685.19z M4298.53,1820.47
	c95.44,0,139.42-42.1,139.42-147.35v-199.76h-58.46v198.82c0,69.71-26.2,92.63-78.61,92.63c-45.84,0-79.98-16.84-79.98-92.63
	v-198.82h-58.49v199.76C4162.42,1783.99,4212.94,1820.47,4298.53,1820.47z M4805.24,1814.39h31.79v-341.03h-56.14v231.57
	l-209.09-231.57h-31.82v341.03h56.14v-232.5L4805.24,1814.39z M4940.41,1814.39h200.2v-50.99h-141.74v-290.04h-58.46V1814.39z
	 M5225.04,1814.39h58.95v-341.03h-58.95V1814.39z M5566.28,1814.39h7.01l118.37-217.53v217.53h54.26v-341.03h-43.03l-130.06,240.92
	l-130.04-240.92h-47.25v341.03h52.87v-218.47L5566.28,1814.39z M5858.72,1814.39h58.95v-341.03h-58.95V1814.39z M6252.39,1529.96
	v-56.61h-254v56.61h97.75v284.43h58.49v-284.43H6252.39z M6328.53,1814.39h215.66v-50.99h-157.2v-99.17h137.07v-45.85h-137.07
	v-94.03h152.04v-50.99h-210.5V1814.39z M6631.94,1814.39h108.99c121.18,0,179.17-67.83,179.17-174.5
	c0-101.98-47.72-166.54-178.25-166.54h-109.92V1814.39z M6690.4,1763.4v-239.05h40.71c92.63,0,127.23,39.77,127.23,117.43
	c0,82.8-38.83,121.63-127.72,121.63H6690.4z"/>
</svg>
