<svg width="82" height="68" viewBox="0 0 82 68" fill="none" xmlns="http://www.w3.org/2000/svg">
<path d="M20.1046 59.3895V56.0042C20.1395 55.4725 19.9665 54.9483 19.6234 54.5464C19.2802 54.1445 18.795 53.8978 18.2739 53.8602C18.191 53.8545 18.1078 53.8545 18.025 53.8602C17.6592 53.8345 17.2935 53.9101 16.9664 54.0789C16.6393 54.2477 16.363 54.5036 16.1666 54.8193C15.9863 54.5143 15.729 54.2643 15.4215 54.0955C15.114 53.9268 14.7677 53.8455 14.4188 53.8602C14.1145 53.8433 13.8111 53.9085 13.5393 54.0492C13.2674 54.1898 13.0367 54.4009 12.8702 54.6614V53.9956H11.7197V59.3895H12.8812V56.4217C12.8586 56.2575 12.8681 56.0904 12.909 55.93C12.9499 55.7695 13.0215 55.6189 13.1197 55.4868C13.2178 55.3547 13.3406 55.2436 13.481 55.1601C13.6214 55.0765 13.7766 55.0221 13.9376 54.9999C14.0167 54.9912 14.0964 54.9912 14.1755 54.9999C14.9387 54.9999 15.3259 55.5077 15.3259 56.4217V59.4234H16.4874V56.433C16.4656 56.2681 16.476 56.1004 16.5179 55.9396C16.5598 55.7788 16.6324 55.628 16.7316 55.4959C16.8308 55.3638 16.9546 55.253 17.0958 55.1698C17.2371 55.0866 17.3931 55.0327 17.5548 55.0112C17.6302 55.0027 17.7062 55.0027 17.7816 55.0112C18.567 55.0112 18.9431 55.519 18.9431 56.433V59.4347L20.1046 59.3895ZM37.3112 53.9956H35.3975V52.3593H34.2361V53.9956H33.1852V55.0676H34.2582V57.5502C34.2582 58.8027 34.7338 59.5475 36.0944 59.5475C36.6028 59.5492 37.1012 59.4045 37.5325 59.13L37.2006 58.1257C36.8919 58.3129 36.5419 58.4177 36.1829 58.4303C35.6298 58.4303 35.4197 58.0692 35.4197 57.5276V55.0676H37.3112V53.9956ZM47.1231 53.8602C46.8426 53.8518 46.5651 53.9207 46.3198 54.0597C46.0745 54.1987 45.8705 54.4027 45.7293 54.6501V53.9956H44.5678V59.3895H45.7182V56.3653C45.7182 55.4738 46.0943 54.9773 46.8244 54.9773C47.0706 54.9719 47.3153 55.018 47.5434 55.1127L47.8974 53.9843C47.6347 53.8883 47.3579 53.8387 47.0788 53.8376L47.1231 53.8602ZM32.2892 54.4244C31.6382 54.0288 30.8893 53.8329 30.1321 53.8602C28.7936 53.8602 27.9198 54.5147 27.9198 55.5867C27.9198 56.4669 28.5613 57.0085 29.745 57.1778L30.298 57.2568C30.9286 57.347 31.2272 57.5163 31.2272 57.821C31.2272 58.2385 30.8069 58.4755 30.0215 58.4755C29.3897 58.4946 28.77 58.2958 28.2627 57.9113L27.7096 58.8253C28.3792 59.3037 29.1822 59.5491 29.9994 59.5249C31.5259 59.5249 32.4109 58.7914 32.4109 57.7646C32.4109 56.7377 31.714 56.3202 30.5635 56.1509L30.0104 56.0719C29.5127 56.0042 29.1144 55.9026 29.1144 55.5415C29.1144 55.1804 29.4684 54.9378 30.1211 54.9378C30.704 54.9437 31.2755 55.1031 31.7803 55.4005L32.2892 54.4244ZM63.1019 53.8602C62.8214 53.8518 62.5439 53.9207 62.2985 54.0597C62.0532 54.1987 61.8493 54.4027 61.7081 54.6501V53.9956H60.5411V59.3895H61.6915V56.3653C61.6915 55.4738 62.0676 54.9773 62.7977 54.9773C63.0439 54.9719 63.2886 55.018 63.5167 55.1127L63.8707 53.9843C63.608 53.8883 63.3311 53.8387 63.0521 53.8376L63.1019 53.8602ZM48.279 56.6813C48.2657 57.0389 48.3217 57.3957 48.4439 57.7313C48.566 58.0668 48.7519 58.3744 48.9908 58.6365C49.2298 58.8986 49.5171 59.11 49.8363 59.2586C50.1555 59.4071 50.5003 59.49 50.8509 59.5024H51.0998C51.7795 59.5404 52.449 59.3215 52.9803 58.8874L52.4272 57.9395C52.0295 58.2488 51.5446 58.419 51.0445 58.4247C50.6192 58.3896 50.2225 58.1925 49.9333 57.8726C49.644 57.5527 49.4834 57.1334 49.4834 56.6982C49.4834 56.263 49.644 55.8437 49.9333 55.5238C50.2225 55.2039 50.6192 55.0068 51.0445 54.9717C51.5446 54.9774 52.0295 55.1475 52.4272 55.4569L52.9803 54.509C52.4473 54.0595 51.7684 53.83 51.0777 53.8658C50.7272 53.8452 50.3761 53.8953 50.0446 54.0132C49.7131 54.1311 49.4076 54.3145 49.1457 54.553C48.8837 54.7914 48.6703 55.0802 48.5178 55.4027C48.3653 55.7253 48.2767 56.0754 48.2569 56.433C48.2514 56.5176 48.2514 56.6024 48.2569 56.6869L48.279 56.6813ZM59.0532 56.6813V53.9956H57.8807V54.6501C57.6844 54.3947 57.4319 54.19 57.1436 54.0528C56.8553 53.9156 56.5394 53.8496 56.2214 53.8602C55.488 53.8602 54.7846 54.1574 54.2659 54.6865C53.7473 55.2155 53.456 55.9331 53.456 56.6813C53.456 57.4295 53.7473 58.147 54.2659 58.6761C54.7846 59.2051 55.488 59.5024 56.2214 59.5024C56.5394 59.513 56.8553 59.447 57.1436 59.3097C57.4319 59.1725 57.6844 58.9679 57.8807 58.7125V59.367H59.0311L59.0532 56.6813ZM54.7723 56.6813C54.789 56.2652 54.9648 55.8725 55.2621 55.5872C55.5594 55.3019 55.9545 55.1469 56.3625 55.1554C56.7706 55.1639 57.1592 55.3352 57.4448 55.6326C57.7305 55.93 57.8905 56.3298 57.8905 56.7462C57.8905 57.1625 57.7305 57.5623 57.4448 57.8597C57.1592 58.1571 56.7706 58.3284 56.3625 58.3369C55.9545 58.3454 55.5594 58.1904 55.2621 57.9051C54.9648 57.6198 54.789 57.2271 54.7723 56.811C54.762 56.7684 54.7546 56.725 54.7502 56.6813H54.7723ZM40.8897 53.8602C40.1563 53.8706 39.457 54.1779 38.9456 54.7144C38.4342 55.2508 38.1527 55.9726 38.163 56.7208C38.1733 57.469 38.4745 58.1824 39.0004 58.704C39.5262 59.2257 40.2337 59.5128 40.9672 59.5024C41.7683 59.5467 42.557 59.2852 43.1795 58.7689L42.6264 57.9C42.1885 58.255 41.6482 58.4533 41.0889 58.4642C40.7086 58.4976 40.3305 58.3783 40.0351 58.1317C39.7397 57.8852 39.5503 57.5308 39.507 57.1439H43.3952V56.6926C43.3952 54.9999 42.3665 53.8715 40.8842 53.8715L40.8897 53.8602ZM40.8897 54.9096C41.0619 54.9059 41.2331 54.9368 41.3935 55.0005C41.554 55.0643 41.7005 55.1597 41.8248 55.2812C41.9491 55.4028 42.0487 55.5481 42.1179 55.709C42.1872 55.8698 42.2246 56.043 42.2282 56.2186H39.4628C39.4882 55.8649 39.6459 55.5348 39.9033 55.2964C40.1606 55.058 40.498 54.9296 40.8455 54.9378L40.8897 54.9096ZM69.7113 56.6926V51.829H68.6051V54.6501C68.4088 54.3947 68.1563 54.19 67.868 54.0528C67.5798 53.9156 67.2638 53.8496 66.9459 53.8602C66.2124 53.8602 65.509 54.1574 64.9904 54.6865C64.4718 55.2155 64.1804 55.9331 64.1804 56.6813C64.1804 57.4295 64.4718 58.147 64.9904 58.6761C65.509 59.2051 66.2124 59.5024 66.9459 59.5024C67.2638 59.513 67.5798 59.447 67.868 59.3097C68.1563 59.1725 68.4088 58.9679 68.6051 58.7125V59.367H69.7113V56.6926ZM71.6029 58.6053C71.6748 58.6044 71.7462 58.6178 71.813 58.6448C71.8766 58.6712 71.9347 58.7095 71.9845 58.7576C72.0312 58.8079 72.0703 58.8649 72.1007 58.9269C72.153 59.0609 72.153 59.2103 72.1007 59.3444C72.0703 59.4063 72.0312 59.4633 71.9845 59.5136C71.933 59.5596 71.8753 59.5976 71.813 59.6265C71.6821 59.6807 71.5357 59.6816 71.404 59.6291C71.2724 59.5767 71.1654 59.4748 71.1051 59.3444C71.0528 59.2103 71.0528 59.0609 71.1051 58.9269C71.1333 58.8636 71.1726 58.8062 71.2212 58.7576C71.2703 58.7086 71.3287 58.6702 71.3927 58.6448C71.4647 58.6155 71.542 58.6021 71.6195 58.6053H71.6029ZM71.6029 59.5588C71.6581 59.559 71.7127 59.5474 71.7633 59.5249C71.8102 59.502 71.8531 59.4716 71.8905 59.4347C71.9597 59.3577 71.998 59.257 71.998 59.1525C71.998 59.0481 71.9597 58.9474 71.8905 58.8704C71.8531 58.8335 71.8102 58.803 71.7633 58.7802C71.7125 58.7581 71.658 58.7466 71.6029 58.7463C71.5477 58.7461 71.4931 58.7577 71.4425 58.7802C71.3923 58.8001 71.347 58.8309 71.3097 58.8704C71.2406 58.9474 71.2022 59.0481 71.2022 59.1525C71.2022 59.257 71.2406 59.3577 71.3097 59.4347C71.3481 59.4729 71.3931 59.5035 71.4425 59.5249C71.4989 59.5475 71.5589 59.559 71.6195 59.5588H71.6029ZM71.6361 58.8874C71.6879 58.8832 71.7393 58.8994 71.7799 58.9325C71.7961 58.9473 71.809 58.9656 71.8176 58.9861C71.8262 59.0066 71.8303 59.0287 71.8296 59.051C71.8285 59.0884 71.8148 59.1242 71.7909 59.1525C71.7574 59.1799 71.7173 59.1974 71.6748 59.2033L71.8352 59.3895H71.708L71.5586 59.2033H71.5089V59.3895H71.4038V58.8874H71.6361ZM71.5144 58.9833V59.1187H71.6361C71.6578 59.1244 71.6807 59.1244 71.7024 59.1187C71.7079 59.1022 71.7079 59.0844 71.7024 59.0679C71.7079 59.0514 71.7079 59.0336 71.7024 59.0171C71.6807 59.0114 71.6578 59.0114 71.6361 59.0171L71.5144 58.9833ZM65.4304 56.6926C65.447 56.2765 65.6229 55.8837 65.9202 55.5985C66.2175 55.3132 66.6125 55.1582 67.0206 55.1667C67.4287 55.1752 67.8172 55.3465 68.1029 55.6439C68.3885 55.9413 68.5485 56.3411 68.5485 56.7574C68.5485 57.1738 68.3885 57.5736 68.1029 57.871C67.8172 58.1684 67.4287 58.3397 67.0206 58.3482C66.6125 58.3567 66.2175 58.2017 65.9202 57.9164C65.6229 57.6311 65.447 57.2383 65.4304 56.8223C65.4293 56.779 65.4312 56.7356 65.4359 56.6926H65.4304ZM26.5868 56.6926V53.9956H25.4419V54.6501C25.2456 54.3947 24.9931 54.19 24.7048 54.0528C24.4165 53.9156 24.1006 53.8496 23.7826 53.8602C23.0492 53.8602 22.3458 54.1574 21.8272 54.6865C21.3085 55.2155 21.0172 55.9331 21.0172 56.6813C21.0172 57.4295 21.3085 58.147 21.8272 58.6761C22.3458 59.2051 23.0492 59.5024 23.7826 59.5024C24.1006 59.513 24.4165 59.447 24.7048 59.3097C24.9931 59.1725 25.2456 58.9679 25.4419 58.7125V59.367H26.5923L26.5868 56.6926ZM22.3059 56.6926C22.3239 56.304 22.4902 55.9382 22.7692 55.6731C23.0482 55.408 23.4178 55.2647 23.799 55.274C24.1802 55.2832 24.5427 55.4441 24.8091 55.7224C25.0754 56.0006 25.2246 56.3741 25.2246 56.7631C25.2246 57.152 25.0754 57.5255 24.8091 57.8038C24.5427 58.0821 24.1802 58.243 23.799 58.2522C23.4178 58.2614 23.0482 58.1182 22.7692 57.8531C22.4902 57.588 22.3239 57.2221 22.3059 56.8336C22.303 56.7866 22.303 56.7395 22.3059 56.6926Z" fill="white"/>
<path d="M49.3081 12.8923H31.8857V44.8328H49.3081V12.8923Z" fill="#FF5F00"/>
<path d="M32.9915 28.8653C32.987 25.7886 33.6695 22.7512 34.9872 19.9836C36.3049 17.216 38.2231 14.7909 40.5965 12.8923C37.6591 10.5373 34.1314 9.07296 30.4168 8.66647C26.7021 8.25999 22.9503 8.92781 19.5901 10.5936C16.2299 12.2594 13.3969 14.856 11.4149 18.0865C9.43291 21.3171 8.38184 25.0514 8.38184 28.8625C8.38184 32.6736 9.43291 36.4079 11.4149 39.6384C13.3969 42.869 16.2299 45.4656 19.5901 47.1314C22.9503 48.7972 26.7021 49.465 30.4168 49.0585C34.1314 48.652 37.6591 47.1876 40.5965 44.8327C38.2248 42.9338 36.3077 40.5094 34.9901 37.7431C33.6725 34.9767 32.9891 31.9409 32.9915 28.8653Z" fill="#EB001B"/>
<path d="M72.8142 28.8653C72.8141 32.6767 71.7628 36.4112 69.7805 39.6419C67.7981 42.8726 64.9647 45.4691 61.604 47.1346C58.2434 48.8002 54.4912 49.4676 50.7764 49.0605C47.0615 48.6535 43.5339 47.1883 40.5967 44.8327C42.9674 42.9321 44.884 40.507 46.2019 37.7405C47.5198 34.974 48.2046 31.9383 48.2046 28.8625C48.2046 25.7866 47.5198 22.7509 46.2019 19.9844C44.884 17.2179 42.9674 14.7929 40.5967 12.8922C43.5339 10.5366 47.0615 9.07148 50.7764 8.66441C54.4912 8.25734 58.2434 8.92473 61.604 10.5903C64.9647 12.2558 67.7981 14.8524 69.7805 18.0831C71.7628 21.3137 72.8141 25.0482 72.8142 28.8596V28.8653Z" fill="#F79E1B"/>
<path d="M70.9109 41.4472V40.7928H71.1709V40.6573H70.4961V40.7928H70.7782V41.4472H70.9109ZM72.1885 41.4472V40.6573H71.9894L71.7571 41.2216L71.5248 40.6573H71.3479V41.4472H71.4917V40.8323L71.7074 41.3457H71.8567L72.0724 40.8323V41.4529L72.1885 41.4472Z" fill="#F79E1B"/>
</svg>
