<svg width="21" height="22" viewBox="0 0 21 22" fill="none" xmlns="http://www.w3.org/2000/svg">
<path d="M11.6242 17.8913L14.2045 15.3108C14.6871 14.8282 15.4462 14.7611 16.006 15.1515L19.4154 17.5296C20.0752 17.9898 20.1588 18.9347 19.5899 19.5036V19.5036C18.6719 20.4216 17.3537 20.8202 16.1236 20.4053C13.8372 19.6342 9.99281 17.9671 6.77989 14.7539C3.56697 11.5408 1.89996 7.69618 1.12884 5.4096C0.713985 4.17943 1.11259 2.86109 2.03054 1.94308V1.94308C2.59941 1.37417 3.54422 1.45772 4.00445 2.11764L6.38231 5.52724C6.7727 6.08703 6.70558 6.84619 6.22302 7.32879L3.64271 9.90927" stroke="#6D7986" stroke-width="1.5" stroke-linecap="round"/>
</svg>
