<svg width="18" height="18" viewBox="0 0 18 18" fill="none" xmlns="http://www.w3.org/2000/svg">
<path d="M10.6743 12.9934L12.5066 11.1611C12.8492 10.8185 13.3883 10.7708 13.7857 11.048L16.2067 12.7365C16.6752 13.0633 16.7346 13.7342 16.3306 14.1381V14.1381C15.6788 14.79 14.7427 15.073 13.8693 14.7784C12.2457 14.2309 9.51589 13.0471 7.23445 10.7657C4.95302 8.48427 3.7693 5.75445 3.22174 4.1309C2.92716 3.25743 3.2102 2.32136 3.86202 1.66955V1.66955C4.26597 1.2656 4.93686 1.32492 5.26366 1.79349L6.95213 4.21443C7.22935 4.6119 7.18169 5.15093 6.83903 5.49359L5.0068 7.32582" stroke="#FBFBFB" stroke-linecap="round"/>
</svg>
