<svg width="35" height="47" viewBox="0 0 35 47" fill="none" xmlns="http://www.w3.org/2000/svg">
<g clip-path="url(#clip0)">
<path d="M9.51631 28.0883C9.04578 28.4141 6.56645 29.2737 6.56645 26.3691V16.9585H3.60753V26.2424C3.60753 33.0198 10.8646 30.8662 12.4662 29.7714V16.9585H9.51631V28.0883ZM0.540039 7.44107V27.4296C0.540039 36.813 7.31748 39.6634 17.5244 44.0882C27.6951 39.6634 34.5087 36.8311 34.5087 27.4296V7.44107C23.9851 1.8671 9.00958 2.95294 0.540039 7.44107ZM32.9433 27.4296C32.9433 35.2657 28.1294 37.7088 17.5244 42.387C6.8922 37.6998 2.09641 35.2657 2.09641 27.4296V15.9921C11.3532 7.50441 23.0531 6.9434 32.9433 7.86636V27.4296ZM13.9773 17.7113V36.9669H16.9362V30.7504C19.1441 31.411 23.4241 30.5152 23.4241 23.6472C23.4241 14.8338 16.1218 16.325 13.9773 17.7113ZM16.9362 28.3254V19.2496C17.6963 18.8695 20.4109 18.1004 20.4109 23.7106C20.4109 29.8546 17.1172 28.3978 16.9362 28.3254ZM24.0937 20.5073C24.1027 24.7874 28.7628 24.353 28.8171 26.8776C28.8714 29.004 26.0663 28.9588 24.2204 27.321V30.0446C27.496 31.9901 31.6312 30.7776 31.7489 27.0133C31.9027 22.3533 26.8535 22.7967 26.9169 20.3897C26.9712 18.5528 29.6858 18.5347 31.3055 20.1906V17.6208C28.7266 15.6301 24.0756 16.7883 24.0937 20.5073Z" fill="#FBFBFB"/>
</g>
<defs>
<clipPath id="clip0">
<rect width="34.7469" height="46.3291" fill="white" transform="translate(0.177734 0.670898)"/>
</clipPath>
</defs>
</svg>
