<svg width="82" height="28" viewBox="0 0 82 28" fill="none" xmlns="http://www.w3.org/2000/svg">
<g clip-path="url(#clip0)">
<path fill-rule="evenodd" clip-rule="evenodd" d="M42.2735 9.31903C42.2271 12.9912 45.5256 15.0313 48.015 16.2554C50.5712 17.5057 51.4295 18.3072 51.4194 19.4234C51.3991 21.1342 49.3808 21.889 47.4916 21.9181C44.1946 21.9692 42.272 21.0234 40.7555 20.3152L39.568 25.9007C41.0962 26.6089 43.9264 27.2268 46.8624 27.253C53.7523 27.253 58.26 23.8344 58.2846 18.5345C58.3122 11.808 49.0271 11.4349 49.0909 8.42867C49.1126 7.51791 49.9782 6.54448 51.8747 6.29676C52.8142 6.17144 55.4051 6.07672 58.3441 7.4363L59.4967 2.03293C57.5333 1.28879 55.4533 0.903844 53.355 0.896301C46.8696 0.896301 42.3068 4.36157 42.2706 9.32195L42.2735 9.31903ZM70.5782 1.3597C69.9803 1.35488 69.3946 1.5303 68.8969 1.8633C68.3991 2.1963 68.0121 2.6716 67.7857 3.22785L57.9439 26.8494H64.8294L66.1995 23.046H74.6089L75.4034 26.8523H81.4828L76.1806 1.3597H70.5782ZM71.5409 8.24506L73.5273 17.8161H68.0859L71.5409 8.24506ZM33.9265 1.3597L28.4981 26.8494H35.0588L40.4843 1.3597H33.9265ZM24.2209 1.3597L17.3977 18.7079L14.6285 3.95646C14.3037 2.3098 13.0234 1.3597 11.5982 1.3597H0.434051L0.289062 2.09996C2.58134 2.59979 5.18534 3.41146 6.76282 4.26831C7.72844 4.79436 8.00392 5.25484 8.32 6.50805L13.5454 26.8494H20.4802L31.1093 1.3597H24.2209Z" fill="#1A1F71"/>
</g>
<defs>
<clipPath id="clip0">
<rect width="81.1938" height="26.3524" fill="white" transform="translate(0.282227 0.893494)"/>
</clipPath>
</defs>
</svg>
